<?xml version="1.0" encoding="UTF-8" standalone="no"?>
<!-- Created with Inkscape (http://www.inkscape.org/) -->

<svg
   width="312mm"
   height="39mm"
   viewBox="0 0 312 39"
   version="1.1"
   id="svg1"
   xml:space="preserve"
   xmlns="http://www.w3.org/2000/svg"
   xmlns:svg="http://www.w3.org/2000/svg"><defs
     id="defs1" /><g
     id="layer1"><path
       style="fill:#040404;stroke:none"
       d="m 35.045702,9.3799876 c -1.01282,0.0905 -1.310103,1.7772294 -0.105427,1.6906594 0.9279,-0.0667 1.031343,-1.7734094 0.105427,-1.6906594 m 116.577318,-0.004 c -1.27344,0.1684297 -1.17477,2.1232794 0.21078,1.8600494 0.96112,-0.1826 0.81083,-1.9951794 -0.21078,-1.8600494 M 80.663242,10.152957 c -0.453213,-0.1901797 -0.99248,-0.0885 -1.478331,-0.10975 -0.919174,-0.0403 -2.097244,-0.6347394 -2.952098,-0.1603497 -0.590982,0.3279597 -0.512482,0.9422297 -0.878648,1.4221897 -1.201389,1.57476 -2.841218,3.55716 -3.107977,5.60599 -0.181594,1.39479 0.449991,2.8009 0.38768,4.2238 -0.06348,1.44956 -0.312634,2.87352 -0.312634,4.3294 0,0.60145 -0.09477,1.33598 0.532615,1.67061 0.748794,0.39939 2.060006,0.0479 2.846426,-0.0957 0.321786,-0.0588 0.76577,-0.13723 0.831973,-0.52512 0.113703,-0.66613 -0.502195,-1.66156 -0.657288,-2.31698 -0.44312,-1.87259 -0.597813,-3.8883 -0.597066,-5.80773 3.36e-4,-0.85236 0.05748,-1.86249 0.656141,-2.52964 1.001401,-1.11593 2.85844,-0.84724 4.201231,-0.8494 0.68981,-10e-4 1.676154,-0.0155 2.110844,-0.65345 0.430256,-0.63145 -0.06403,-2.00962 -0.655006,-2.41573 -0.661245,-0.45439 -2.09089,-0.86546 -0.927862,-1.78819 M 148.1431,9.8394573 c -1.0165,0.5283797 -0.0426,1.7406397 0.82602,1.2448197 0.88191,-0.50342 -0.0244,-1.6614994 -0.82602,-1.2448197 M 38.214042,11.736827 c 0.215857,-0.019 0.426744,-0.0349 0.629414,-0.12124 1.434646,-0.61151 -0.48703,-2.2615994 -0.62322,-0.72311 -0.02463,0.27817 -0.0062,0.56522 -0.0062,0.84435 m 17.211988,-0.69437 c -0.730122,0.10085 -1.287674,0.58493 -2.006305,0.67472 -1.432596,0.17899 -3.182049,-0.34693 -4.43336,0.60644 -0.674702,0.51405 -1.805782,2.51426 -0.629413,3.0858 0.577666,0.28066 1.088001,-0.35346 1.472542,-0.68555 0.990856,-0.85572 2.570702,-1.92245 3.605628,-0.44829 0.498244,0.7097 0.301388,1.81402 0.301388,2.63531 0,2.64799 -1.25802,5.05652 -0.905543,7.70844 0.200453,1.50812 0.330223,3.53302 2.383873,3.32966 0.722131,-0.0715 2.358049,-0.22504 2.662852,-1.02613 0.279997,-0.73588 -0.866151,-2.35466 -1.053997,-3.14829 -0.532938,-2.25163 -0.369847,-4.59138 -0.06974,-6.86368 0.110274,-0.83499 0.06455,-1.72857 0.614344,-2.42828 1.861486,-2.36909 3.554384,1.30094 5.543977,-0.0499 0.618702,-0.42006 2.990104,-2.18987 2.218965,-3.05468 -0.380771,-0.42703 -1.673427,-0.26551 -2.207963,-0.33569 -2.275913,-0.29883 -5.223228,-0.314 -7.497247,8e-5 m 39.492544,-8e-5 c -1.66846,0.21907 -3.38836,0.31904 -5.06857,0.47526 -0.74639,0.0694 -1.75827,0.0148 -2.27729,0.65288 -0.47481,0.58371 -0.1868,1.44061 -0.0722,2.10049 0.2539,1.46199 0.38691,2.95564 0.44454,4.435 0.0646,1.65772 -0.18769,3.43384 -0.46181,5.06856 -0.13194,0.78689 -0.52315,1.96045 -0.19473,2.73439 0.36918,0.86997 1.82476,0.61654 2.56149,0.6488 1.67848,0.0735 3.39602,0.17139 5.06856,0.33056 0.94518,0.0899 2.38736,0.35661 3.27182,-0.0784 0.9125,-0.44878 1.46695,-2.98372 0.31377,-3.4514 -0.89575,-0.36328 -1.64885,0.53865 -2.31845,0.96804 -1.12172,0.71933 -2.65249,1.40658 -4.01261,1.1164 -0.83869,-0.17893 -1.56978,-0.66977 -1.8026,-1.52925 -0.23111,-0.85313 0.1768,-1.77963 0.21453,-2.63987 0.0751,-1.71145 -0.0519,-3.45627 -0.01,-5.17416 0.0225,-0.91334 -0.41642,-2.00656 0.12011,-2.84642 1.46031,-2.28594 4.73986,-0.0723 6.1236,0.87759 0.62833,0.43133 1.79019,0.64568 2.13904,-0.2503 0.18996,-0.48789 -0.0536,-1.02823 -0.23955,-1.4767 -0.68904,-1.66184 -2.0718,-2.18843 -3.8002,-1.96149 m 68.976131,0.27491 c -1.22973,0.72992 0.20999,2.56341 0.68139,3.27051 1.6395,2.45923 3.2384,4.95464 4.7451,7.49725 0.60323,1.01796 1.14175,2.43621 2.57575,1.64544 0.89348,-0.49271 1.21973,-1.99492 0.83612,-2.91258 -0.68263,-1.63301 -1.95894,-3.02486 -2.70382,-4.64619 -0.61435,-1.33723 -0.83822,-2.99509 -2.03932,-3.96201 -0.73926,-0.59513 -3.19163,-1.42876 -4.09522,-0.89242 m -140.569547,8.55026 h -5.385346 c 0.429083,1.03061 1.586529,2.63803 1.174255,3.80134 -0.267056,0.75355 -1.035694,1.12194 -1.70223,1.45226 -1.754406,0.86942 -4.506283,1.06996 -6.014273,-0.40609 -0.669597,-0.65541 -0.669617,-1.54518 -0.78854,-2.41882 -0.275573,-2.02447 -0.05435,-4.26641 0.483163,-6.23011 0.278031,-1.01573 0.607055,-1.93696 1.673469,-2.34265 1.118483,-0.42549 2.516847,-0.33531 3.695826,-0.40665 0.479766,-0.029 0.911118,-0.24819 1.372735,-0.0242 1.166385,0.56596 1.816713,1.78332 3.062256,2.24552 0,-0.89198 0.347327,-2.17469 -0.28012,-2.93294 -0.731624,-0.88416 -2.416633,-0.57341 -3.415706,-0.67529 -1.03802,-0.10586 -1.859898,-0.68256 -2.956661,-0.60611 -1.970832,0.13737 -3.403921,1.68281 -4.8573707,2.8412 -0.681199,0.54292 -1.511905,0.9603 -1.878224,1.79552 -0.438769,1.00042 -0.233267,2.31231 -0.233676,3.37905 -5.42e-4,1.40946 -0.290367,2.7566 0.259018,4.1182 1.403069,3.47737 6.3033987,5.66238 9.8781037,4.48575 1.415801,-0.46601 3.828767,-1.49916 4.515328,-2.9019 0.514002,-1.05018 0.193311,-2.17645 0.391096,-3.27337 0.141139,-0.78278 0.568475,-1.27031 1.006897,-1.90071 m 47.51776,-8.50683 c -1.416104,0.2229 -2.766243,1.0354 -3.639935,2.17113 -0.749458,0.97423 -0.423959,2.13526 1.000059,1.932 0.726817,-0.10375 1.097772,-0.88911 1.689604,-1.24783 1.232782,-0.74723 2.890181,-0.16424 3.726137,-1.64438 0.702209,-1.24334 -2.20146,-1.30134 -2.775865,-1.21092 m 8.342007,0.48161 c -0.07365,0.25494 -0.151844,0.50282 -0.313601,0.71936 -0.999634,1.33823 -2.823598,-0.50783 -1.164652,-0.88892 0.205171,-0.0471 0.425203,-0.0445 0.633493,-0.0232 0.288492,0.0295 0.566735,0.11465 0.84476,0.19278 m 29.88339,1.58392 c 0.85987,-0.12546 1.37396,-0.69111 2.32309,-0.47208 1.65901,0.38287 2.92912,3.1477 1.75088,4.58035 -0.73829,0.89769 -2.81782,0.18899 -2.98966,1.48835 -0.10746,0.81262 0.83838,1.60745 1.14662,2.32301 0.45539,1.05719 0.57712,2.42444 1.25045,3.36796 0.49045,0.68726 1.37195,1.11036 1.91611,1.8062 0.57982,0.74141 1.42422,1.95149 2.52214,1.84603 0.70243,-0.0675 1.14379,-0.81091 0.76637,-1.42365 -0.99423,-1.61416 -2.71432,-2.54142 -2.86873,-4.64618 -0.14272,-1.94526 0.92333,-3.10026 1.38812,-4.85738 0.27603,-1.04351 0.10277,-2.37378 -0.23653,-3.37904 -0.23158,-0.6861 -0.5826,-1.63535 -1.26827,-1.9874 -0.51722,-0.26556 -1.23134,-0.0883 -1.79357,-0.15464 -1.81578,-0.21424 -3.78467,-0.43696 -5.59654,-0.11611 -0.64824,0.11479 -1.82519,0.28402 -2.07988,1.00096 -0.26978,0.75938 0.17441,1.85515 0.26838,2.62993 0.22899,1.88796 0.45434,3.79516 0.32372,5.70213 -0.0928,1.3549 -0.35477,2.7235 -0.78414,4.01261 -0.1774,0.53264 -0.7426,1.42365 -0.51388,1.99075 0.17301,0.42896 0.818,0.4191 1.20188,0.43794 0.81623,0.04 3.38709,0.50474 3.70348,-0.63936 0.20505,-0.74149 -0.94788,-1.89095 -1.1525,-2.63409 -0.43069,-1.56421 -0.0291,-3.1672 0.0794,-4.75177 0.0875,-1.27771 -0.56907,-2.42855 -0.41097,-3.69583 0.11738,-0.94081 0.92521,-1.56692 1.05399,-2.42869 m 19.1127,-1.74875 c -1.71373,0.267 -4.03982,-0.30662 -5.02489,1.53764 -0.57536,1.07721 0.34126,1.64306 0.4702,2.6398 0.14382,1.11165 -0.0795,2.26281 0.0321,3.37904 0.13192,1.31931 0.62515,2.22774 0.33455,3.59023 -0.20594,0.96557 -0.5276,1.8938 -0.76125,2.85107 -0.0826,0.33846 -0.29832,0.88514 -0.15701,1.22591 0.25646,0.61842 1.77858,0.85634 2.36082,0.88183 0.69533,0.0305 1.96663,-0.10725 2.28992,-0.86008 0.35621,-0.82944 -0.35001,-2.79829 -0.51551,-3.67635 -0.23102,-1.22575 -0.56311,-2.66321 -0.50303,-3.90701 0.0381,-0.78862 0.39692,-1.51984 0.41659,-2.3231 0.0196,-0.8 -0.34431,-2.70189 0.27604,-3.3154 0.54287,-0.53688 1.93605,-0.23296 2.57658,-0.0743 4.07092,1.00831 5.12065,6.44364 3.47079,9.83101 -0.52347,1.07475 -1.54985,1.54888 -2.24031,2.44702 -0.52576,0.68389 -0.23336,1.63598 0.67023,1.69563 2.60695,0.1721 4.65548,-4.14535 5.18522,-6.25455 1.38893,-5.53007 -3.2659,-10.54321 -8.88105,-9.66838 m -90.393496,0.22569 c -4.547566,-0.0584 -8.438939,2.65369 -9.046459,7.33079 -0.1099,0.84608 0.121675,1.7009 0.241011,2.53428 0.136396,0.95247 0.01689,1.90125 0.245736,2.85107 0.564428,2.34259 2.501378,4.16152 4.973639,4.22225 1.496498,0.0368 3.064079,0.0245 4.434991,-0.66054 2.886429,-1.44229 4.429699,-5.58187 4.826815,-8.63027 0.44321,-3.40228 -1.330076,-5.51602 -4.29884,-6.80754 -0.472645,-0.20562 -0.854325,-0.83333 -1.376893,-0.84004 m 112.357266,-0.004 c -1.4693,0.27751 -1.05977,2.50498 -1.61131,3.63944 -0.75383,1.55056 -2.08684,2.70816 -2.89513,4.22381 -0.80448,1.50847 -1.06162,3.24795 -1.92143,4.75177 -0.47755,0.83524 -2.25328,2.30742 -1.16348,3.22921 0.67923,0.57451 3.02654,0.6642 3.53091,-0.18691 0.46872,-0.79097 0.0627,-1.94409 0.34082,-2.83111 0.56992,-1.81776 3.19525,-2.368 4.88116,-2.19867 0.29877,0.03 0.59178,0.12061 0.84435,0.28517 2.33748,1.52295 -0.84477,3.47176 -0.14698,5.17546 0.19555,0.47746 0.77935,0.42233 1.20334,0.47868 1.08632,0.14438 2.72809,0.13145 3.80142,-0.11667 0.88101,-0.20367 1.66809,-1.09708 1.28214,-2.03964 -0.324,-0.79121 -1.32793,-1.15291 -1.77287,-1.90111 -0.67532,-1.13562 -1.05125,-2.49604 -1.60911,-3.69583 -0.79411,-1.70787 -1.7689,-3.32085 -2.48262,-5.06856 -0.41052,-1.00524 -0.7836,-4.02789 -2.28121,-3.74504 m 23.65328,15.67728 c 1.52511,0.58833 3.02271,0.7503 4.64618,0.55812 0.55659,-0.0659 1.45346,0.0338 1.64211,-0.67366 0.18593,-0.69718 -0.53568,-1.66817 -0.76092,-2.31315 -0.50702,-1.45187 -0.85301,-3.20916 -0.76573,-4.75177 0.098,-1.73247 0.31347,-3.45453 0.56251,-5.17416 0.0919,-0.63438 0.43728,-1.724 0.13282,-2.31731 -0.51973,-1.01273 -3.01208,-1.09788 -3.72321,-0.3 -0.56595,0.63499 -0.461,1.63591 -0.37854,2.40612 0.1855,1.73276 0.5734,3.43679 0.73875,5.17416 0.16922,1.77803 -0.0513,3.65464 -0.81517,5.27975 -0.35204,0.74896 -0.94608,1.36427 -1.2788,2.1119 m 24.39245,-9.08117 c -0.48856,2.05217 0.88807,4.15715 0.27033,6.2301 -0.19448,0.65266 -0.54447,1.28294 -1.02775,1.76497 -0.25205,0.25139 -0.73112,0.54906 -0.62689,0.97064 0.15445,0.62466 0.99171,0.6426 1.48991,0.64343 1.11225,0.002 3.46014,0.53838 4.07242,-0.74079 0.266,-0.55573 0.0893,-1.22071 -0.0187,-1.79349 -0.24698,-1.30944 -0.60434,-2.59469 -0.84103,-3.90701 -0.60936,-3.37856 -0.38876,-6.19041 0.37758,-9.50356 -1.05992,0.49533 -2.53645,0.22103 -3.47355,0.84566 -0.73883,0.49248 -0.80287,1.97223 -1.20001,2.74457 -0.74654,1.45187 -2.36315,2.36098 -3.03488,3.80143 h -0.21119 c -0.33254,-1.21844 -0.78291,-2.45998 -1.34667,-3.59024 -0.53081,-1.06421 -1.30664,-3.08444 -2.4563,-3.5908 -0.60511,-0.26651 -2.45823,-0.30837 -2.50569,0.63577 -0.0397,0.79084 0.96941,1.83726 1.31955,2.53265 1.03353,2.05262 1.79306,4.20604 2.64493,6.33571 0.29766,0.74412 0.61032,2.06099 1.60502,2.09055 2.88586,0.0858 3.14663,-4.16229 4.96296,-5.46959 m 22.38615,9.60914 c -0.0373,-1.12256 0.53287,-1.99912 0.77299,-3.06225 0.30719,-1.3602 -0.59385,-2.23874 -1.93454,-1.58433 -1.40305,0.68483 -2.51131,1.96501 -3.90701,2.73161 -0.7285,0.40013 -1.29205,0.86234 -2.11183,0.4223 -0.9172,-0.49233 -0.74984,-2.11602 -0.73883,-3.04791 0.0175,-1.47616 -0.0238,-3.07063 0.12318,-4.54059 0.14558,-1.45592 0.49454,-2.5396 0.31825,-4.01261 -0.0755,-0.63112 0.27882,-2.09083 -0.2902,-2.5329 -1.28635,-0.99936 -3.18309,-0.20941 -3.39338,1.26576 -0.44099,3.09342 0.77949,6.23898 0.22014,9.39796 -0.18732,1.05793 -0.42416,2.12022 -0.66159,3.16785 -0.10377,0.45788 -0.3041,1.04252 0.0347,1.44394 0.75406,0.89347 2.08859,0.66796 3.12051,0.66796 2.80902,0 5.61758,-0.31679 8.44761,-0.31679 m 80.4634,-10.98188 c 0.67913,-1.2755 0.78127,-3.12455 -0.73957,-3.86449 -0.73515,-0.35766 -1.64454,-0.30939 -2.42828,-0.54101 -0.84473,-0.24964 -2.60239,-1.06271 -3.32477,-0.21656 -0.96013,1.12461 1.15621,1.80157 1.84644,2.19337 0.62543,0.35501 1.26658,0.68534 1.90071,1.02483 0.88209,0.47223 1.78285,1.12602 2.74547,1.40386 m -42.97717,-4.81101 c -0.45626,0.0711 -1.96709,0.19358 -2.11654,0.72222 -0.2486,0.87935 1.23997,1.64507 1.36173,2.40123 0.35473,2.20293 -0.3089,4.08758 -0.40259,6.22815 -0.0427,0.97623 0.32885,2.36454 0.0273,3.27344 -0.29073,0.87623 -1.07547,1.34258 -1.93217,1.54017 -2.09906,0.48414 -4.16881,-1.28576 -4.70003,-3.22969 -0.29433,-1.07702 0.003,-1.99778 0.14266,-3.06225 0.17124,-1.3016 0.12071,-2.61332 0.38101,-3.90702 0.17388,-0.86423 0.85113,-1.87093 0.77899,-2.74539 -0.0354,-0.42928 -0.33702,-0.77015 -0.72238,-0.94098 -0.78023,-0.34587 -3.25666,-0.45639 -4.00488,-0.0107 -0.39528,0.23547 -0.46649,0.64618 -0.32647,1.05717 0.49642,1.4573 1.0477,2.6474 1.15561,4.22381 0.24409,3.56518 -1.22334,7.56943 2.33253,10.02728 0.60771,0.42007 1.30689,0.62896 2.0063,0.84631 0.84927,0.26393 1.74714,0.44131 2.63988,0.28477 0.8553,-0.14998 1.44226,-0.74001 2.11605,-1.2229 0.75316,-0.53978 1.67539,-0.6518 2.21652,-1.48827 0.50075,-0.77408 0.31361,-1.86491 0.31361,-2.74506 0,-1.35355 0.20255,-2.58798 0.30694,-3.90702 0.0421,-0.53187 -0.16378,-1.06305 -0.0495,-1.58392 0.1997,-0.91006 0.0934,-2.49051 0.5006,-3.26929 0.27729,-0.53031 1.33922,-0.95319 1.07688,-1.68268 -0.35411,-0.98471 -2.29344,-0.93544 -3.10208,-0.8094 m -42.66039,0.6928 v 0.21119 c 1.7402,0.7295 2.66666,2.58429 4.64618,2.85107 0.25682,-1.12379 0.5319,-2.41212 -0.37267,-3.35933 -0.883,-0.92463 -3.38534,-0.28818 -4.27351,0.29707 m 62.93463,8.97558 c -0.45022,-1.01042 -1.35518,-1.83869 -1.98465,-2.74547 -1.47802,-2.12911 -2.74428,-4.51431 -4.98462,-5.95659 -1.09542,-0.7052 -1.6334,-0.60566 -2.85106,-0.59071 -0.45964,0.006 -1.07366,-0.10144 -1.43255,0.25739 -0.30395,0.3039 -0.26847,0.82716 -0.36257,1.22135 0.94546,0.33216 0.7949,1.69428 0.90555,2.53428 0.33782,2.56482 0.2131,5.45905 -0.0909,8.02522 -0.10407,0.87858 -1.10047,2.94798 0.0306,3.34271 0.77276,0.26967 2.93238,0.50227 2.79443,-0.90457 -0.0395,-0.40275 -0.52447,-0.69632 -0.68359,-1.06548 -0.25493,-0.59154 -0.34908,-1.47109 -0.40193,-2.11182 -0.0929,-1.12561 0.40557,-2.2245 0.2521,-3.37904 -0.14401,-1.0832 -0.21766,-3.15438 1.41754,-3.21495 1.13306,-0.042 1.65833,1.44131 2.00785,2.26459 1.08686,2.55998 3.47724,4.18071 5.23299,6.23011 0.58222,0.67958 1.76544,3.11743 2.8737,2.0824 0.78219,-0.7305 0.99243,-2.14448 1.12334,-3.13835 0.35631,-2.70515 -0.0241,-5.41757 0.17574,-8.13082 0.0781,-1.06004 0.99181,-2.54722 0.52986,-3.56766 -0.40838,-0.90213 -2.55295,-0.93365 -3.28427,-0.52113 -1.51734,0.85587 -0.52115,1.9871 -0.14399,3.13843 0.49199,1.50178 0.73935,5.67217 -1.12357,6.23011 m -50.77555,-9.39502 c -0.8775,0.51957 0.0941,2.64072 0.25633,3.3761 0.67311,3.05184 0.33689,6.14469 -0.19279,9.18677 -0.12312,0.70719 -0.95917,2.64098 -0.0499,3.08988 0.32067,0.15831 0.78201,0.14707 1.1322,0.19742 1.12819,0.16221 4.30965,0.70578 3.94107,-1.49015 -0.0907,-0.54072 -0.59985,-0.56304 -0.98018,-0.85299 -0.53156,-0.40522 -0.88982,-1.01342 -0.94473,-1.68332 -0.0713,-0.86984 0.14522,-4.03513 1.36288,-3.97856 1.07423,0.0499 1.40471,2.21043 1.66908,3.0282 0.34654,1.07191 0.64316,2.32209 1.2559,3.27345 1.26701,1.96723 3.79456,3.17579 5.93841,1.75788 0.72274,-0.47803 -0.0724,-1.13763 -0.52138,-1.49202 -1.63716,-1.29213 -3.51023,-2.45254 -3.86066,-4.70085 -0.2328,-1.49354 0.68038,-2.93795 1.46716,-4.11821 0.45025,-0.67544 1.13219,-1.55496 0.99509,-2.4286 -0.11869,-0.75647 -1.11837,-1.17762 -1.66384,-1.60626 -0.65729,-0.51651 -1.3111,-1.11315 -2.11191,-1.39815 -1.47889,-0.52635 -3.41394,-0.26912 -4.96296,-0.26912 -0.71893,0 -2.09997,-0.26441 -2.72982,0.10853 m 64.60427,0.62558 c -1.00351,-0.0598 -2.17617,1.19955 -2.71631,1.90576 -1.80115,2.35495 -2.48911,5.82075 -1.55402,8.6588 0.38301,1.16248 0.91576,2.78913 1.95188,3.5217 0.84982,0.60085 2.37027,0.53645 3.37863,0.60595 1.99994,0.13786 3.89312,0.6103 5.91332,0.27295 1.0534,-0.1759 2.4513,-1.08379 2.70384,-2.18311 0.17288,-0.75256 -0.0601,-1.56355 0.0653,-2.32309 0.15566,-0.94322 1.08857,-2.13853 -0.34083,-2.61625 -1.42268,-0.47546 -3.04983,-0.36164 -3.41246,1.24352 -0.13622,0.60303 0.17358,1.36841 -0.15055,1.90063 -1.20676,1.98141 -3.94888,1.56685 -5.50822,0.32485 -2.03719,-1.62261 -3.28352,-4.21783 -1.81249,-6.66047 0.54515,-0.90521 1.59027,-1.44855 2.07305,-2.32725 0.33148,-0.60335 0.41063,-2.26431 -0.59111,-2.32399 m -60.3945,0.41986 c 1.22747,-0.26212 1.91879,0.28385 2.748,1.01716 0.33331,0.29476 0.83061,0.55639 0.98652,0.99827 0.30488,0.86396 -0.36146,2.80993 -1.30787,3.01866 -1.74819,0.38558 -3.08509,-0.6105 -3.41193,-2.38664 -0.11818,-0.64217 0.22085,-2.48422 0.98528,-2.64745 m -195.035629,1.41087 c 2.471906,-0.32107 3.69841,2.18273 3.695826,4.29884 -0.0038,3.15667 -1.766699,6.24328 -5.068561,6.62225 -3.111541,0.35713 -3.443542,-2.65275 -3.599679,-4.93273 -0.07391,-1.0793 -0.26411,-2.22814 0.124981,-3.27345 0.659699,-1.7723 3.149077,-2.49432 4.847433,-2.71491 m 176.238099,1.13098 -0.1056,1.05595 h -0.10559 v -1.05595 h 0.21119 m -118.688761,0.69213 c -2.49279,0.29542 -1.07705,4.51578 0.94994,4.24206 0.55764,-0.0753 0.80988,-0.62255 0.83336,-1.13319 0.0494,-1.0735 -0.36809,-3.27658 -1.7833,-3.10887 m 54.702791,0.32306 c 1.52724,-0.55716 3.02888,2.47094 1.36776,3.11383 -1.86805,0.72299 -2.98742,-2.52295 -1.36776,-3.11383 m 65.14756,0.8851 c 0.64025,0.41508 0.43816,2.04339 1.06696,2.74547 0.29358,0.32778 0.58727,0.70684 0.91246,1.00168 0.98327,0.89151 2.21806,-0.29668 2.37565,-1.31847 0.0639,-0.41401 -0.22377,-0.79265 -0.3629,-1.16154 -0.58544,-1.55209 -2.59324,-3.10461 -3.99217,-1.26714 m -50.15763,6.62111 c -1.02087,0.34502 -2.30587,2.53025 -1.22176,3.43763 0.28786,0.24093 0.76649,0.1982 1.11616,0.17452 0.95755,-0.0648 2.60837,0.20974 3.4694,-0.17452 0.7154,-0.31927 0.27998,-1.37512 -0.0316,-1.82193 -0.62493,-0.89608 -2.1693,-2.00871 -3.33218,-1.6157 m 23.75888,0.19172 c -1.2027,0.25899 -2.02807,1.29363 -2.20324,2.47953 -0.0547,0.37006 -0.16257,0.89966 0.15099,1.18876 0.58985,0.54385 3.11675,0.26705 3.84695,0.049 0.83651,-0.24983 0.79353,-1.17517 0.65427,-1.87129 -0.23638,-1.1816 -1.17016,-2.12135 -2.44897,-1.84596 m 28.08827,1.74036 -0.10559,0.1056 0.10559,-0.1056 m -1.90071,1.05595 -0.31678,0.31679 z"
       id="path1" /></g></svg>
