<?xml version="1.0" encoding="UTF-8"?>
<svg xmlns="http://www.w3.org/2000/svg" viewBox="0 0 59.32 39" fill="none">
  <g><path transform="translate(0.00 0)" fill="#ffffff" d="M4.2 8.1L4.2 33.6"/>
  <path transform="translate(0.00 0)" fill="#ffffff" d="M4.2 8.1C6.8 7.5 9.1 9.2 9.3 12.4C9.5 15.1 6.9 16.8 4.2 16.8Z"/>
  <path transform="translate(0.00 0)" fill="#ffffff" d="M4.2 20.2C7.5 20.2 10.1 22.4 10.1 26.1C10.1 30.2 7.2 33.6 4.2 33.6Z"/>
  <path transform="translate(7.50 0)" fill="#ffffff" d="M6.6875 9.376C5.4141 9.5444 5.5128 11.4993 6.8983 11.236C7.8594 11.0534 7.7091 9.2409 6.6875 9.376"/>
  <path transform="translate(7.50 0)" fill="#ffffff" d="M3.2076 9.8395C2.1911 10.3678 3.165 11.5801 4.0336 11.0843C4.9155 10.5809 4.0092 9.4228 3.2076 9.8395"/>
  <path transform="translate(7.50 0)" fill="#ffffff" d="M5.2087 11.8992C3.7394 12.1767 4.1489 14.4041 3.5974 15.5386C2.8435 17.0892 1.5105 18.2468 0.7022 19.7624C-0.1022 21.2709 -0.3594 23.0104 -1.2192 24.5142C-1.6967 25.3494 -3.4725 26.8216 -2.3827 27.7434C-1.7034 28.3179 0.6439 28.4076 1.1482 27.5565C1.617 26.7655 1.2109 25.6124 1.4891 24.7254C2.059 22.9076 4.6843 22.3574 6.3702 22.5267C6.669 22.5567 6.962 22.6473 7.2146 22.8119C9.552 24.3348 6.3698 26.2836 7.0676 27.9873C7.2631 28.4648 7.8469 28.4097 8.2709 28.466C9.3572 28.6104 10.999 28.5975 12.0723 28.3493C12.9534 28.1457 13.7404 27.2523 13.3545 26.3097C13.0305 25.5185 12.0266 25.1568 11.5816 24.4086C10.9063 23.273 10.5304 21.9125 9.9725 20.7128C9.1784 19.0049 8.2036 17.3919 7.4899 15.6442C7.0794 14.639 6.7063 11.6163 5.2087 11.8992"/>
  <path transform="translate(7.50 0)" fill="#ffffff" d="M4.0517 17.1873C5.579 16.6302 7.0806 19.6583 5.4195 20.3012C3.5514 21.0242 2.4321 17.7782 4.0517 17.1873"/>
  <path transform="translate(25.29 0)" fill="#ffffff" d="M15.3397 21.9799C14.8895 20.9695 13.9846 20.1412 13.3551 19.2344C11.8771 17.1053 10.6108 14.7201 8.3705 13.2778C7.2751 12.5726 6.7371 12.6722 5.5194 12.6871C5.0598 12.6931 4.4458 12.5857 4.0869 12.9445C3.7829 13.2484 3.8184 13.7717 3.7243 14.1658C4.6698 14.498 4.5192 15.8601 4.6298 16.7001C4.9677 19.2649 4.8429 22.1592 4.5389 24.7253C4.4349 25.6039 3.4385 27.6733 4.5695 28.0681C5.3423 28.3377 7.5019 28.5703 7.364 27.1635C7.3245 26.7607 6.8395 26.4672 6.6804 26.098C6.4255 25.5065 6.3313 24.6269 6.2785 23.9862C6.1856 22.8606 6.684 21.7617 6.5306 20.6071C6.3865 19.5239 6.3129 17.4528 7.9481 17.3922C9.0812 17.3502 9.6064 18.8335 9.9559 19.6568C11.0428 22.2168 13.4332 23.8375 15.1889 25.8869C15.7712 26.5665 16.9544 29.0043 18.0626 27.9693C18.8448 27.2388 19.0551 25.8248 19.186 24.8309C19.5423 22.1258 19.1619 19.4134 19.3617 16.7001C19.4398 15.6401 20.3535 14.1529 19.8916 13.1325C19.4832 12.2303 17.3386 12.1988 16.6073 12.6113C15.09 13.4672 16.0862 14.5984 16.4633 15.7498C16.9553 17.2515 17.2027 21.4219 15.3397 21.9799"/>
  <path transform="translate(43.18 0)" fill="#ffffff" d="M2.9218 11.6775C1.2081 11.9445 -1.118 11.3708 -2.1031 13.2151C-2.6784 14.2923 -1.7618 14.8582 -1.6329 15.8549C-1.4891 16.9665 -1.7124 18.1177 -1.6008 19.2339C-1.4689 20.5532 -0.9756 21.4617 -1.2662 22.8242C-1.4722 23.7897 -1.7938 24.718 -2.0275 25.6752C-2.1101 26.0137 -2.3258 26.5604 -2.1845 26.9011C-1.928 27.5196 -0.4059 27.7575 0.1763 27.783C0.8717 27.8135 2.143 27.6757 2.4663 26.9229C2.8225 26.0935 2.1162 24.1246 1.9507 23.2465C1.7197 22.0208 1.3876 20.5833 1.4477 19.3395C1.4858 18.5509 1.8446 17.8197 1.8643 17.0164C1.8839 16.2164 1.52 14.3145 2.1403 13.701C2.6832 13.1642 4.0764 13.4681 4.7169 13.6267C8.7878 14.635 9.8376 20.0704 8.1877 23.4577C7.6642 24.5325 6.6379 25.0066 5.9474 25.9048C5.4216 26.5887 5.714 27.5407 6.6176 27.6004C9.2246 27.7725 11.2731 23.455 11.8029 21.3458C13.1918 15.8158 8.537 10.8026 2.9218 11.6775"/></g>
</svg>