<?xml version="1.0" encoding="UTF-8"?>
<svg xmlns="http://www.w3.org/2000/svg" viewBox="0 0 112.62 39" fill="none">
  <g><path transform="translate(0.00 0)" fill="#ffffff" d="M16.8 11.2C14.5 9.1 10.2 10.4 9.7 15.1C9.1 21.2 12.4 28.6 17.1 28.1C18.9 27.9 19.2 24.1 17.8 20.8C16.9 18.7 17.4 13.4 16.8 11.2Z"/>
  <path transform="translate(10.65 0)" fill="#ffffff" d="M8.1715 9.38C7.1587 9.4705 6.8614 11.1572 8.0661 11.0706C8.994 11.0039 9.0974 9.2972 8.1715 9.38"/>
  <path transform="translate(10.65 0)" fill="#ffffff" d="M11.3398 11.7368C11.5557 11.7178 11.7666 11.7019 11.9693 11.6156C13.4039 11.0041 11.4822 9.354 11.346 10.8925C11.3214 11.1706 11.3398 11.4577 11.3398 11.7368"/>
  <path transform="translate(10.65 0)" fill="#ffffff" d="M10.9127 11.9032C6.3651 11.8448 2.4738 14.5568 1.8663 19.2339C1.7564 20.08 1.9879 20.9348 2.1073 21.7682C2.2437 22.7207 2.1242 23.6695 2.353 24.6193C2.9174 26.9619 4.8544 28.7808 7.3266 28.8415C8.8231 28.8783 10.3907 28.866 11.7616 28.181C14.6481 26.7387 16.1913 22.5991 16.5884 19.5507C17.0317 16.1485 15.2584 14.0347 12.2896 12.7432C11.817 12.5376 11.4353 11.9099 10.9127 11.9032"/>
  <path transform="translate(10.65 0)" fill="#ffffff" d="M9.8609 15.0412C12.3328 14.7201 13.5593 17.2239 13.5567 19.34C13.5529 22.4967 11.79 25.5833 8.4882 25.9623C5.3766 26.3194 5.0446 23.3095 4.8885 21.0295C4.8146 19.9502 4.6244 18.8014 5.0135 17.7561C5.6732 15.9838 8.1626 15.2618 9.8609 15.0412"/>
  <path transform="translate(28.38 0)" fill="#ffffff" d="M15.3397 21.9799C14.8895 20.9695 13.9846 20.1412 13.3551 19.2344C11.8771 17.1053 10.6108 14.7201 8.3705 13.2778C7.2751 12.5726 6.7371 12.6722 5.5194 12.6871C5.0598 12.6931 4.4458 12.5857 4.0869 12.9445C3.7829 13.2484 3.8184 13.7717 3.7243 14.1658C4.6698 14.498 4.5192 15.8601 4.6298 16.7001C4.9677 19.2649 4.8429 22.1592 4.5389 24.7253C4.4349 25.6039 3.4385 27.6733 4.5695 28.0681C5.3423 28.3377 7.5019 28.5703 7.364 27.1635C7.3245 26.7607 6.8395 26.4672 6.6804 26.098C6.4255 25.5065 6.3313 24.6269 6.2785 23.9862C6.1856 22.8606 6.684 21.7617 6.5306 20.6071C6.3865 19.5239 6.3129 17.4528 7.9481 17.3922C9.0812 17.3502 9.6064 18.8335 9.9559 19.6568C11.0428 22.2168 13.4332 23.8375 15.1889 25.8869C15.7712 26.5665 16.9544 29.0043 18.0626 27.9693C18.8448 27.2388 19.0551 25.8248 19.186 24.8309C19.5423 22.1258 19.1619 19.4134 19.3617 16.7001C19.4398 15.6401 20.3535 14.1529 19.8916 13.1325C19.4832 12.2303 17.3386 12.1988 16.6073 12.6113C15.09 13.4672 16.0862 14.5984 16.4633 15.7498C16.9553 17.2515 17.2027 21.4219 15.3397 21.9799"/>
  <path transform="translate(46.28 0)" fill="#ffffff" d="M8.8749 11.0425C8.1448 11.1433 7.5873 11.6274 6.8686 11.7172C5.436 11.8962 3.6866 11.3702 2.4353 12.3236C1.7606 12.8377 0.6295 14.8379 1.8058 15.4094C2.3835 15.6901 2.8938 15.056 3.2784 14.7239C4.2692 13.8681 5.8491 12.8014 6.884 14.2756C7.3823 14.9853 7.1854 16.0896 7.1854 16.9109C7.1854 19.5589 5.9274 21.9674 6.2799 24.6193C6.4803 26.1274 6.6101 28.1523 8.6637 27.949C9.3859 27.8775 11.0218 27.7239 11.3266 26.9229C11.6066 26.187 10.4604 24.5682 10.2726 23.7746C9.7397 21.5229 9.9027 19.1832 10.2028 16.9109C10.3131 16.0759 10.2674 15.1823 10.8172 14.4826C12.6787 12.1135 14.3716 15.7835 16.3612 14.4327C16.9799 14.0126 19.3513 12.2428 18.5801 11.378C18.1994 10.951 16.9067 11.1125 16.3722 11.0423C14.0963 10.7435 11.1489 10.7283 8.8749 11.0424"/>
  <path transform="translate(46.28 0)" fill="#ffffff" d="M14.4353 10.153C13.9821 9.9628 13.4429 10.0645 12.957 10.0432C12.0378 10.0029 10.8598 9.4085 10.0049 9.8829C9.4139 10.2108 9.4924 10.8251 9.1263 11.305C7.9249 12.8798 6.285 14.8622 6.0183 16.911C5.8367 18.3058 6.4683 19.7119 6.406 21.1348C6.3425 22.5844 6.0933 24.0084 6.0933 25.4642C6.0933 26.0657 5.9986 26.8002 6.6259 27.1348C7.3747 27.5342 8.686 27.1827 9.4724 27.0391C9.7942 26.9803 10.2381 26.9019 10.3043 26.514C10.4181 25.8479 9.8022 24.8525 9.6471 24.197C9.2039 22.3245 9.0492 20.3087 9.05 18.3893C9.0503 17.537 9.1075 16.5268 9.7061 15.8597C10.7075 14.7437 12.5646 15.0124 13.9074 15.0103C14.5972 15.0093 15.5835 14.9948 16.0182 14.3568C16.4485 13.7254 15.9542 12.3472 15.3632 11.9411C14.702 11.4867 13.2723 11.0756 14.4353 10.1529"/>
  <path transform="translate(46.28 0)" fill="#ffffff" d="M4.6145 11.3607C3.1984 11.5836 1.8482 12.3961 0.9745 13.5318C0.2251 14.506 0.5506 15.667 1.9746 15.4638C2.7014 15.36 3.0724 14.5747 3.6642 14.216C4.897 13.4687 6.5544 14.0517 7.3903 12.5716C8.0925 11.3282 5.1889 11.2702 4.6145 11.3607"/>
  <path transform="translate(46.28 0)" fill="#ffffff" d="M12.9565 11.8423C12.8828 12.0972 12.8046 12.3451 12.6429 12.5616C11.6432 13.8999 9.8193 12.0538 11.4782 11.6727C11.6834 11.6256 11.9034 11.6282 12.1117 11.6495C12.4002 11.679 12.6784 11.7642 12.9565 11.8423"/>
  <path transform="translate(66.03 0)" fill="#ffffff" d="M6.6875 9.376C5.4141 9.5444 5.5128 11.4993 6.8983 11.236C7.8594 11.0534 7.7091 9.2409 6.6875 9.376"/>
  <path transform="translate(66.03 0)" fill="#ffffff" d="M3.2076 9.8395C2.1911 10.3678 3.165 11.5801 4.0336 11.0843C4.9155 10.5809 4.0092 9.4228 3.2076 9.8395"/>
  <path transform="translate(66.03 0)" fill="#ffffff" d="M5.2087 11.8992C3.7394 12.1767 4.1489 14.4041 3.5974 15.5386C2.8435 17.0892 1.5105 18.2468 0.7022 19.7624C-0.1022 21.2709 -0.3594 23.0104 -1.2192 24.5142C-1.6967 25.3494 -3.4725 26.8216 -2.3827 27.7434C-1.7034 28.3179 0.6439 28.4076 1.1482 27.5565C1.617 26.7655 1.2109 25.6124 1.4891 24.7254C2.059 22.9076 4.6843 22.3574 6.3702 22.5267C6.669 22.5567 6.962 22.6473 7.2146 22.8119C9.552 24.3348 6.3698 26.2836 7.0676 27.9873C7.2631 28.4648 7.8469 28.4097 8.2709 28.466C9.3572 28.6104 10.999 28.5975 12.0723 28.3493C12.9534 28.1457 13.7404 27.2523 13.3545 26.3097C13.0305 25.5185 12.0266 25.1568 11.5816 24.4086C10.9063 23.273 10.5304 21.9125 9.9725 20.7128C9.1784 19.0049 8.2036 17.3919 7.4899 15.6442C7.0794 14.639 6.7063 11.6163 5.2087 11.8992"/>
  <path transform="translate(66.03 0)" fill="#ffffff" d="M4.0517 17.1873C5.579 16.6302 7.0806 19.6583 5.4195 20.3012C3.5514 21.0242 2.4321 17.7782 4.0517 17.1873"/>
  <path transform="translate(83.82 0)" fill="#ffffff" d="M16.8 11.2C14.5 9.1 10.2 10.4 9.7 15.1C9.1 21.2 12.4 28.6 17.1 28.1C18.9 27.9 19.2 24.1 17.8 20.8C16.9 18.7 17.4 13.4 16.8 11.2Z"/>
  <path transform="translate(94.47 0)" fill="#ffffff" d="M8.8749 11.0425C8.1448 11.1433 7.5873 11.6274 6.8686 11.7172C5.436 11.8962 3.6866 11.3702 2.4353 12.3236C1.7606 12.8377 0.6295 14.8379 1.8058 15.4094C2.3835 15.6901 2.8938 15.056 3.2784 14.7239C4.2692 13.8681 5.8491 12.8014 6.884 14.2756C7.3823 14.9853 7.1854 16.0896 7.1854 16.9109C7.1854 19.5589 5.9274 21.9674 6.2799 24.6193C6.4803 26.1274 6.6101 28.1523 8.6637 27.949C9.3859 27.8775 11.0218 27.7239 11.3266 26.9229C11.6066 26.187 10.4604 24.5682 10.2726 23.7746C9.7397 21.5229 9.9027 19.1832 10.2028 16.9109C10.3131 16.0759 10.2674 15.1823 10.8172 14.4826C12.6787 12.1135 14.3716 15.7835 16.3612 14.4327C16.9799 14.0126 19.3513 12.2428 18.5801 11.378C18.1994 10.951 16.9067 11.1125 16.3722 11.0423C14.0963 10.7435 11.1489 10.7283 8.8749 11.0424"/>
  <path transform="translate(94.47 0)" fill="#ffffff" d="M14.4353 10.153C13.9821 9.9628 13.4429 10.0645 12.957 10.0432C12.0378 10.0029 10.8598 9.4085 10.0049 9.8829C9.4139 10.2108 9.4924 10.8251 9.1263 11.305C7.9249 12.8798 6.285 14.8622 6.0183 16.911C5.8367 18.3058 6.4683 19.7119 6.406 21.1348C6.3425 22.5844 6.0933 24.0084 6.0933 25.4642C6.0933 26.0657 5.9986 26.8002 6.6259 27.1348C7.3747 27.5342 8.686 27.1827 9.4724 27.0391C9.7942 26.9803 10.2381 26.9019 10.3043 26.514C10.4181 25.8479 9.8022 24.8525 9.6471 24.197C9.2039 22.3245 9.0492 20.3087 9.05 18.3893C9.0503 17.537 9.1075 16.5268 9.7061 15.8597C10.7075 14.7437 12.5646 15.0124 13.9074 15.0103C14.5972 15.0093 15.5835 14.9948 16.0182 14.3568C16.4485 13.7254 15.9542 12.3472 15.3632 11.9411C14.702 11.4867 13.2723 11.0756 14.4353 10.1529"/>
  <path transform="translate(94.47 0)" fill="#ffffff" d="M4.6145 11.3607C3.1984 11.5836 1.8482 12.3961 0.9745 13.5318C0.2251 14.506 0.5506 15.667 1.9746 15.4638C2.7014 15.36 3.0724 14.5747 3.6642 14.216C4.897 13.4687 6.5544 14.0517 7.3903 12.5716C8.0925 11.3282 5.1889 11.2702 4.6145 11.3607"/>
  <path transform="translate(94.47 0)" fill="#ffffff" d="M12.9565 11.8423C12.8828 12.0972 12.8046 12.3451 12.6429 12.5616C11.6432 13.8999 9.8193 12.0538 11.4782 11.6727C11.6834 11.6256 11.9034 11.6282 12.1117 11.6495C12.4002 11.679 12.6784 11.7642 12.9565 11.8423"/></g>
</svg>