<?xml version="1.0" encoding="UTF-8"?>
<svg xmlns="http://www.w3.org/2000/svg" viewBox="0 0 159.10 39" fill="none">
  <g><path transform="translate(0.00 0)" fill="#ffffff" d="M2.9218 11.6775C1.2081 11.9445 -1.118 11.3708 -2.1031 13.2151C-2.6784 14.2923 -1.7618 14.8582 -1.6329 15.8549C-1.4891 16.9665 -1.7124 18.1177 -1.6008 19.2339C-1.4689 20.5532 -0.9756 21.4617 -1.2662 22.8242C-1.4722 23.7897 -1.7938 24.718 -2.0275 25.6752C-2.1101 26.0137 -2.3258 26.5604 -2.1845 26.9011C-1.928 27.5196 -0.4059 27.7575 0.1763 27.783C0.8717 27.8135 2.143 27.6757 2.4663 26.9229C2.8225 26.0935 2.1162 24.1246 1.9507 23.2465C1.7197 22.0208 1.3876 20.5833 1.4477 19.3395C1.4858 18.5509 1.8446 17.8197 1.8643 17.0164C1.8839 16.2164 1.52 14.3145 2.1403 13.701C2.6832 13.1642 4.0764 13.4681 4.7169 13.6267C8.7878 14.635 9.8376 20.0704 8.1877 23.4577C7.6642 24.5325 6.6379 25.0066 5.9474 25.9048C5.4216 26.5887 5.714 27.5407 6.6176 27.6004C9.2246 27.7725 11.2731 23.455 11.8029 21.3458C13.1918 15.8158 8.537 10.8026 2.9218 11.6775"/>
  <path transform="translate(17.74 0)" fill="#ffffff" d="M4.4 8.2L4.6 33.6"/>
  <path transform="translate(19.54 0)" fill="#ffffff" d="M15.2 10.4C14.09 10.49 13.79 12.18 14.99 12.09C15.92 12.02 16.02 10.32 15.1 10.4Z"/>
  <path transform="translate(19.54 0)" fill="#ffffff" d="M4.6 12.7C3.15 12.51 2.12 14.2 2.17 17.4C2.24 22.5 4.8 30.2 10.2 32.8C12.4 33.9 14.1 31.2 13.4 27.1C12.1 20.8 7.2 16.4 4.6 12.7Z"/>
  <path transform="translate(34.71 0)" fill="#ffffff" d="M16.8 11.2C14.5 9.1 10.2 10.4 9.7 15.1C9.1 21.2 12.4 28.6 17.1 28.1C18.9 27.9 19.2 24.1 17.8 20.8C16.9 18.7 17.4 13.4 16.8 11.2Z"/>
  <path transform="translate(45.36 0)" fill="#ffffff" d="M8.1715 9.38C7.1587 9.4705 6.8614 11.1572 8.0661 11.0706C8.994 11.0039 9.0974 9.2972 8.1715 9.38"/>
  <path transform="translate(45.36 0)" fill="#ffffff" d="M11.3398 11.7368C11.5557 11.7178 11.7666 11.7019 11.9693 11.6156C13.4039 11.0041 11.4822 9.354 11.346 10.8925C11.3214 11.1706 11.3398 11.4577 11.3398 11.7368"/>
  <path transform="translate(45.36 0)" fill="#ffffff" d="M10.9127 11.9032C6.3651 11.8448 2.4738 14.5568 1.8663 19.2339C1.7564 20.08 1.9879 20.9348 2.1073 21.7682C2.2437 22.7207 2.1242 23.6695 2.353 24.6193C2.9174 26.9619 4.8544 28.7808 7.3266 28.8415C8.8231 28.8783 10.3907 28.866 11.7616 28.181C14.6481 26.7387 16.1913 22.5991 16.5884 19.5507C17.0317 16.1485 15.2584 14.0347 12.2896 12.7432C11.817 12.5376 11.4353 11.9099 10.9127 11.9032"/>
  <path transform="translate(45.36 0)" fill="#ffffff" d="M9.8609 15.0412C12.3328 14.7201 13.5593 17.2239 13.5567 19.34C13.5529 22.4967 11.79 25.5833 8.4882 25.9623C5.3766 26.3194 5.0446 23.3095 4.8885 21.0295C4.8146 19.9502 4.6244 18.8014 5.0135 17.7561C5.6732 15.9838 8.1626 15.2618 9.8609 15.0412"/>
  <path transform="translate(63.09 0)" fill="#ffffff" d="M16.1273 19.8675H10.742C11.171 20.8981 12.3285 22.5055 11.9162 23.6688C11.6492 24.4224 10.8805 24.7908 10.214 25.1211C8.4596 25.9905 5.7077 26.191 4.1997 24.715C3.5301 24.0596 3.5301 23.1698 3.4112 22.2962C3.1356 20.2717 3.3568 18.0298 3.8943 16.0661C4.1724 15.0503 4.5014 14.1291 5.5678 13.7234C6.6863 13.2979 8.0846 13.3881 9.2636 13.3168C9.7434 13.2878 10.1747 13.0686 10.6364 13.2926C11.8027 13.8585 12.4531 15.0759 13.6986 15.5381C13.6986 14.6461 14.0459 13.3634 13.4185 12.6051C12.6869 11.721 11.0019 12.0317 10.0028 11.9299C8.9648 11.824 8.1429 11.2473 7.0461 11.3237C5.0753 11.4611 3.6422 13.0066 2.1888 14.1649C1.5076 14.7079 0.6769 15.1252 0.3105 15.9605C-0.1282 16.9609 0.0773 18.2728 0.0769 19.3395C0.0763 20.749 -0.2135 22.0961 0.3359 23.4577C1.7389 26.9351 6.6393 29.1201 10.214 27.9435C11.6298 27.4775 14.0427 26.4443 14.7293 25.0416C15.2433 23.9914 14.9226 22.8651 15.1204 21.7682C15.2615 20.9854 15.6889 20.4979 16.1273 19.8675"/>
  <path transform="translate(63.09 0)" fill="#ffffff" d="M18.3658 17.1225C19.0449 15.847 19.1471 13.998 17.6262 13.258C16.8911 12.9004 15.9817 12.9486 15.198 12.717C14.3532 12.4674 12.5956 11.6543 11.8732 12.5005C10.9131 13.6251 13.0294 14.302 13.7196 14.6938C14.345 15.0488 14.9862 15.3792 15.6203 15.7187C16.5024 16.1909 17.4032 16.8447 18.3658 17.1225"/>
  <path transform="translate(63.09 0)" fill="#ffffff" d="M9.4915 13.2104C8.488 13.1506 7.3153 14.41 6.7752 15.1162C4.9741 17.4711 4.2861 20.9369 5.2212 23.775C5.6042 24.9375 6.1369 26.5641 7.1731 27.2967C8.0229 27.8975 9.5433 27.8331 10.5517 27.9026C12.5516 28.0405 14.4448 28.5129 16.465 28.1756C17.5184 27.9997 18.9163 27.0918 19.1689 25.9925C19.3417 25.2399 19.1088 24.4289 19.2342 23.6694C19.3898 22.7262 20.3227 21.5309 18.8933 21.0531C17.4706 20.5777 15.8435 20.6915 15.4809 22.2967C15.3446 22.8997 15.6544 23.6651 15.3303 24.1973C14.1236 26.1787 11.3814 25.7641 9.8221 24.5221C7.7849 22.8995 6.5386 20.3043 8.0096 17.8617C8.5548 16.9565 9.5999 16.4131 10.0827 15.5344C10.4141 14.9311 10.4933 13.2701 9.4915 13.2104"/>
  <path transform="translate(84.37 0)" fill="#ffffff" d="M3.4861 13.4262C4.3459 13.3007 4.86 12.7351 5.8091 12.9541C7.4682 13.337 8.7383 16.1018 7.56 17.5345C6.8217 18.4322 4.7422 17.7235 4.5704 19.0228C4.4629 19.8354 5.4087 20.6303 5.717 21.3458C6.1724 22.403 6.2941 23.7703 6.9674 24.7138C7.4579 25.4011 8.3394 25.8242 8.8835 26.52C9.4634 27.2614 10.3078 28.4715 11.4057 28.366C12.1081 28.2985 12.5495 27.5551 12.1721 26.9424C11.1778 25.3282 9.4577 24.401 9.3033 22.2962C9.1606 20.3509 10.2267 19.1959 10.6914 17.4388C10.9675 16.3953 10.7942 15.065 10.4549 14.0598C10.2233 13.3737 9.8723 12.4244 9.1866 12.0724C8.6694 11.8068 7.9553 11.9841 7.3931 11.9177C5.5773 11.7035 3.6084 11.4808 1.7965 11.8016C1.1483 11.9164 -0.0287 12.0856 -0.2833 12.8026C-0.5531 13.562 -0.1089 14.6577 -0.015 15.4325C0.214 17.3205 0.4394 19.2277 0.3088 21.1346C0.216 22.4895 -0.046 23.8581 -0.4754 25.1473C-0.6528 25.6799 -1.218 26.5709 -0.9893 27.138C-0.8163 27.567 -0.1713 27.5571 0.2126 27.5759C1.0288 27.6159 3.5997 28.0807 3.9161 26.9366C4.1211 26.1951 2.9682 25.0456 2.7636 24.3025C2.3329 22.7383 2.7345 21.1353 2.843 19.5507C2.9305 18.273 2.2739 17.1222 2.432 15.8549C2.5494 14.9141 3.3572 14.288 3.486 13.4262"/>
  <path transform="translate(84.37 0)" fill="#ffffff" d="M3.918 12.5849C3.0405 13.1044 4.0121 15.2256 4.1743 15.961C4.8474 19.0128 4.5112 22.1056 3.9815 25.1477C3.8584 25.8549 3.0224 27.7887 3.9316 28.2376C4.2523 28.3959 4.7136 28.3847 5.0638 28.435C6.192 28.5972 9.3735 29.1408 9.0049 26.9449C8.9142 26.4042 8.4051 26.3818 8.0247 26.0919C7.4932 25.6867 7.1349 25.0785 7.08 24.4086C7.0087 23.5387 7.2252 20.3734 8.4429 20.43C9.5171 20.4799 9.8476 22.6404 10.112 23.4582C10.4585 24.5301 10.7551 25.7803 11.3679 26.7317C12.6349 28.6989 15.1624 29.9074 17.3063 28.4895C18.029 28.0115 17.2339 27.3519 16.7849 26.9975C15.1477 25.7054 13.2747 24.545 12.9242 22.2967C12.6914 20.8031 13.6046 19.3587 14.3914 18.1785C14.8416 17.503 15.5236 16.6235 15.3865 15.7499C15.2678 14.9934 14.2681 14.5722 13.7226 14.1436C13.0653 13.6271 12.4115 13.0304 11.6107 12.7454C10.1318 12.2191 8.1968 12.4763 6.6478 12.4763C5.9288 12.4763 4.5478 12.2119 3.9179 12.5849"/>
  <path transform="translate(84.37 0)" fill="#ffffff" d="M8.1277 13.6303C9.3552 13.3682 10.0465 13.9141 10.8757 14.6475C11.2091 14.9422 11.7064 15.2038 11.8623 15.6457C12.1671 16.5097 11.5008 18.4557 10.5544 18.6644C8.8062 19.05 7.4693 18.0539 7.1425 16.2777C7.0243 15.6356 7.3633 13.7935 8.1277 13.6303"/>
  <path transform="translate(104.61 0)" fill="#ffffff" d="M6.6875 9.376C5.4141 9.5444 5.5128 11.4993 6.8983 11.236C7.8594 11.0534 7.7091 9.2409 6.6875 9.376"/>
  <path transform="translate(104.61 0)" fill="#ffffff" d="M3.2076 9.8395C2.1911 10.3678 3.165 11.5801 4.0336 11.0843C4.9155 10.5809 4.0092 9.4228 3.2076 9.8395"/>
  <path transform="translate(104.61 0)" fill="#ffffff" d="M5.2087 11.8992C3.7394 12.1767 4.1489 14.4041 3.5974 15.5386C2.8435 17.0892 1.5105 18.2468 0.7022 19.7624C-0.1022 21.2709 -0.3594 23.0104 -1.2192 24.5142C-1.6967 25.3494 -3.4725 26.8216 -2.3827 27.7434C-1.7034 28.3179 0.6439 28.4076 1.1482 27.5565C1.617 26.7655 1.2109 25.6124 1.4891 24.7254C2.059 22.9076 4.6843 22.3574 6.3702 22.5267C6.669 22.5567 6.962 22.6473 7.2146 22.8119C9.552 24.3348 6.3698 26.2836 7.0676 27.9873C7.2631 28.4648 7.8469 28.4097 8.2709 28.466C9.3572 28.6104 10.999 28.5975 12.0723 28.3493C12.9534 28.1457 13.7404 27.2523 13.3545 26.3097C13.0305 25.5185 12.0266 25.1568 11.5816 24.4086C10.9063 23.273 10.5304 21.9125 9.9725 20.7128C9.1784 19.0049 8.2036 17.3919 7.4899 15.6442C7.0794 14.639 6.7063 11.6163 5.2087 11.8992"/>
  <path transform="translate(104.61 0)" fill="#ffffff" d="M4.0517 17.1873C5.579 16.6302 7.0806 19.6583 5.4195 20.3012C3.5514 21.0242 2.4321 17.7782 4.0517 17.1873"/>
  <path transform="translate(122.40 0)" fill="#ffffff" d="M4.2 33.6L4.2 8.1"/>
  <path transform="translate(122.40 0)" fill="#ffffff" d="M4.2 8.1C8.1 7.8 10.4 10.2 10.4 13.8C10.4 17.1 8.1 19.8 4.2 19.8Z"/>
  <path transform="translate(130.20 0)" fill="#ffffff" d="M4.2 8.1L4.4 33.6"/>
  <path transform="translate(130.20 0)" fill="#ffffff" d="M16.6 8.2L16.5 33.5"/>
  <path transform="translate(130.20 0)" fill="#ffffff" d="M4.3 19.8L16.7 19.6"/>
  <path transform="translate(144.30 0)" fill="#ffffff" d="M2.8 8.2L10.3 20.4L10.2 33.5"/>
  <path transform="translate(144.30 0)" fill="#ffffff" d="M17.6 8.2L10.3 20.4"/></g>
</svg>