<?xml version="1.0" encoding="UTF-8"?>
<svg xmlns="http://www.w3.org/2000/svg" viewBox="0 0 83.26 39" fill="none">
  <g><path transform="translate(0.00 0)" fill="#ffffff" d="M-0.7182 11.3172C-1.948 12.0471 -0.5083 13.8806 -0.0369 14.5877C1.6026 17.047 3.2015 19.5424 4.7082 22.085C5.3115 23.1029 5.85 24.5212 7.284 23.7304C8.1775 23.2377 8.5037 21.7355 8.1201 20.8178C7.4375 19.1848 6.1612 17.793 5.4163 16.1717C4.8019 14.8344 4.5781 13.1766 3.377 12.2096C2.6377 11.6145 0.1853 10.7809 -0.7182 11.3172"/>
  <path transform="translate(0.00 0)" fill="#ffffff" d="M9.1851 27.5764C10.7102 28.1648 12.2078 28.3267 13.8312 28.1346C14.3878 28.0687 15.2847 28.1684 15.4733 27.4609C15.6593 26.7637 14.9377 25.7927 14.7124 25.1477C14.2054 23.6959 13.8594 21.9386 13.9467 20.396C14.0447 18.6635 14.2602 16.9414 14.5092 15.2218C14.6011 14.5874 14.9465 13.4978 14.642 12.9045C14.1223 11.8918 11.6299 11.8066 10.9188 12.6045C10.3529 13.2395 10.4578 14.2404 10.5403 15.0106C10.7258 16.7434 11.1137 18.4474 11.279 20.1848C11.4482 21.9628 11.2277 23.8394 10.4639 25.4645C10.1118 26.2135 9.5178 26.8288 9.1851 27.5764"/>
  <path transform="translate(0.00 0)" fill="#ffffff" d="M-0.6352 24.6935C-1.6561 25.0386 -2.9411 27.2238 -1.857 28.1312C-1.5691 28.3721 -1.0905 28.3294 -0.7408 28.3057C0.2167 28.2409 1.8675 28.5154 2.7286 28.1312C3.444 27.8119 3.0086 26.7561 2.697 26.3092C2.072 25.4132 0.5277 24.3005 -0.6352 24.6935"/>
  <path transform="translate(0.00 0)" fill="#ffffff" d="M13.9007 18.4953C13.4122 20.5474 14.7888 22.6524 14.171 24.7254C13.9766 25.378 13.6266 26.0083 13.1433 26.4903C12.8912 26.7417 12.4122 27.0394 12.5164 27.461C12.6709 28.0856 13.5081 28.1036 14.0063 28.1044C15.1186 28.1064 17.4665 28.6428 18.0787 27.3636C18.3447 26.8079 18.168 26.1429 18.06 25.5701C17.8131 24.2607 17.4557 22.9754 17.219 21.6631C16.6096 18.2846 16.8302 15.4727 17.5966 12.1596C16.5367 12.6549 15.0601 12.3806 14.123 13.0052C13.3842 13.4977 13.3202 14.9774 12.923 15.7498C12.1765 17.2017 10.5599 18.1108 9.8881 19.5512H9.677C9.3444 18.3328 8.894 17.0912 8.3303 15.961C7.7995 14.8968 7.0236 12.8765 5.874 12.3702C5.2689 12.1037 3.4158 12.0618 3.3683 13.0059C3.3286 13.7968 4.3377 14.8432 4.6878 15.5386C5.7214 17.5912 6.4809 19.7446 7.3328 21.8743C7.6304 22.6184 7.9431 23.9353 8.9378 23.9649C11.8237 24.0507 12.0844 19.8026 13.9008 18.4953"/>
  <path transform="translate(0.00 0)" fill="#ffffff" d="M3.4469 24.8853C2.2442 25.1443 1.4188 26.1789 1.2436 27.3648C1.1889 27.7349 1.0811 28.2645 1.3946 28.5536C1.9845 29.0974 4.5114 28.8206 5.2416 28.6026C6.0781 28.3527 6.0351 27.4274 5.8958 26.7313C5.6595 25.5497 4.7257 24.6099 3.4469 24.8853"/>
  <path transform="translate(22.09 0)" fill="#ffffff" d="M9.0138 11.0423C7.3453 11.2614 5.6254 11.3614 3.9452 11.5176C3.1988 11.587 2.1869 11.5324 1.6679 12.1705C1.1931 12.7542 1.4811 13.6111 1.5957 14.271C1.8496 15.733 1.9826 17.2266 2.0402 18.706C2.1048 20.3637 1.8526 22.1398 1.5784 23.7745C1.4465 24.5614 1.0553 25.735 1.3837 26.5089C1.7529 27.3789 3.2085 27.1255 3.9452 27.1577C5.6237 27.2312 7.3412 27.3291 9.0138 27.4883C9.9589 27.5782 11.4011 27.8449 12.2856 27.4099C13.1981 26.9611 13.7525 24.4262 12.5993 23.9585C11.7036 23.5952 10.9505 24.4971 10.2809 24.9265C9.1592 25.6458 7.6284 26.3331 6.2683 26.0429C5.4296 25.864 4.6985 25.3731 4.4657 24.5137C4.2346 23.6605 4.6425 22.734 4.6802 21.8738C4.7553 20.1623 4.6283 18.4175 4.6702 16.6996C4.6927 15.7863 4.2538 14.6931 4.7903 13.8532C6.2506 11.5673 9.5302 13.7809 10.9139 14.7308C11.5423 15.1621 12.7041 15.3765 13.053 14.4805C13.2429 13.9926 12.9994 13.4523 12.8134 13.0038C12.1244 11.342 10.7416 10.8154 9.0132 11.0423"/>
  <path transform="translate(22.09 0)" fill="#ffffff" d="M8.3796 16.8643C5.8869 17.1597 7.3026 21.3801 9.3296 21.1063C9.8872 21.031 10.1395 20.4838 10.1629 19.9731C10.2123 18.8996 9.7949 16.6966 8.3796 16.8643"/>
  <path transform="translate(22.09 0)" fill="#ffffff" d="M16.61 28.1044C16.5727 26.9818 17.1429 26.1053 17.383 25.0422C17.6902 23.682 16.7891 22.8034 15.4485 23.4578C14.0454 24.1427 12.9371 25.4228 11.5414 26.1894C10.8129 26.5896 10.2494 27.0518 9.4296 26.6117C8.5124 26.1194 8.6798 24.4957 8.6908 23.5638C8.7083 22.0877 8.667 20.4932 8.814 19.0232C8.9595 17.5673 9.3085 16.4836 9.1322 15.0106C9.0567 14.3795 9.411 12.9198 8.842 12.4777C7.5557 11.4784 5.6589 12.2683 5.4486 13.7435C5.0076 16.8369 6.2281 19.9825 5.6688 23.1414C5.4815 24.1994 5.2446 25.2617 5.0072 26.3093C4.9034 26.7672 4.7031 27.3518 5.0419 27.7532C5.7959 28.6467 7.1305 28.4212 8.1624 28.4212C10.9714 28.4212 13.78 28.1044 16.61 28.1044"/>
  <path transform="translate(22.09 0)" fill="#ffffff" d="M11.4358 13.0043V13.2155C13.176 13.945 14.1025 15.7998 16.082 16.0666C16.3388 14.9428 16.6139 13.6544 15.7093 12.7072C14.8263 11.7826 12.324 12.419 11.4358 13.0043"/>
  <path transform="translate(22.09 0)" fill="#ffffff" d="M10.1687 18.0724C10.809 18.4875 10.6069 20.1158 11.2357 20.8179C11.5292 21.1457 11.8229 21.5247 12.1481 21.8196C13.1314 22.7111 14.3662 21.5229 14.5238 20.5011C14.5877 20.0871 14.3 19.7085 14.1609 19.3396C13.5754 17.7875 11.5676 16.235 10.1687 18.0724"/>
  <path transform="translate(39.87 0)" fill="#ffffff" d="M3.4861 13.4262C4.3459 13.3007 4.86 12.7351 5.8091 12.9541C7.4682 13.337 8.7383 16.1018 7.56 17.5345C6.8217 18.4322 4.7422 17.7235 4.5704 19.0228C4.4629 19.8354 5.4087 20.6303 5.717 21.3458C6.1724 22.403 6.2941 23.7703 6.9674 24.7138C7.4579 25.4011 8.3394 25.8242 8.8835 26.52C9.4634 27.2614 10.3078 28.4715 11.4057 28.366C12.1081 28.2985 12.5495 27.5551 12.1721 26.9424C11.1778 25.3282 9.4577 24.401 9.3033 22.2962C9.1606 20.3509 10.2267 19.1959 10.6914 17.4388C10.9675 16.3953 10.7942 15.065 10.4549 14.0598C10.2233 13.3737 9.8723 12.4244 9.1866 12.0724C8.6694 11.8068 7.9553 11.9841 7.3931 11.9177C5.5773 11.7035 3.6084 11.4808 1.7965 11.8016C1.1483 11.9164 -0.0287 12.0856 -0.2833 12.8026C-0.5531 13.562 -0.1089 14.6577 -0.015 15.4325C0.214 17.3205 0.4394 19.2277 0.3088 21.1346C0.216 22.4895 -0.046 23.8581 -0.4754 25.1473C-0.6528 25.6799 -1.218 26.5709 -0.9893 27.138C-0.8163 27.567 -0.1713 27.5571 0.2126 27.5759C1.0288 27.6159 3.5997 28.0807 3.9161 26.9366C4.1211 26.1951 2.9682 25.0456 2.7636 24.3025C2.3329 22.7383 2.7345 21.1353 2.843 19.5507C2.9305 18.273 2.2739 17.1222 2.432 15.8549C2.5494 14.9141 3.3572 14.288 3.486 13.4262"/>
  <path transform="translate(39.87 0)" fill="#ffffff" d="M3.918 12.5849C3.0405 13.1044 4.0121 15.2256 4.1743 15.961C4.8474 19.0128 4.5112 22.1056 3.9815 25.1477C3.8584 25.8549 3.0224 27.7887 3.9316 28.2376C4.2523 28.3959 4.7136 28.3847 5.0638 28.435C6.192 28.5972 9.3735 29.1408 9.0049 26.9449C8.9142 26.4042 8.4051 26.3818 8.0247 26.0919C7.4932 25.6867 7.1349 25.0785 7.08 24.4086C7.0087 23.5387 7.2252 20.3734 8.4429 20.43C9.5171 20.4799 9.8476 22.6404 10.112 23.4582C10.4585 24.5301 10.7551 25.7803 11.3679 26.7317C12.6349 28.6989 15.1624 29.9074 17.3063 28.4895C18.029 28.0115 17.2339 27.3519 16.7849 26.9975C15.1477 25.7054 13.2747 24.545 12.9242 22.2967C12.6914 20.8031 13.6046 19.3587 14.3914 18.1785C14.8416 17.503 15.5236 16.6235 15.3865 15.7499C15.2678 14.9934 14.2681 14.5722 13.7226 14.1436C13.0653 13.6271 12.4115 13.0304 11.6107 12.7454C10.1318 12.2191 8.1968 12.4763 6.6478 12.4763C5.9288 12.4763 4.5478 12.2119 3.9179 12.5849"/>
  <path transform="translate(39.87 0)" fill="#ffffff" d="M8.1277 13.6303C9.3552 13.3682 10.0465 13.9141 10.8757 14.6475C11.2091 14.9422 11.7064 15.2038 11.8623 15.6457C12.1671 16.5097 11.5008 18.4557 10.5544 18.6644C8.8062 19.05 7.4693 18.0539 7.1425 16.2777C7.0243 15.6356 7.3633 13.7935 8.1277 13.6303"/>
  <path transform="translate(60.12 0)" fill="#ffffff" d="M16.8 11.2C14.5 9.1 10.2 10.4 9.7 15.1C9.1 21.2 12.4 28.6 17.1 28.1C18.9 27.9 19.2 24.1 17.8 20.8C16.9 18.7 17.4 13.4 16.8 11.2Z"/>
  <path transform="translate(70.76 0)" fill="#ffffff" d="M4.2 8.1L4.4 33.6"/>
  <path transform="translate(70.76 0)" fill="#ffffff" d="M16.6 8.2L16.5 33.5"/>
  <path transform="translate(70.76 0)" fill="#ffffff" d="M4.3 19.8L16.7 19.6"/></g>
</svg>