<?xml version="1.0" encoding="UTF-8"?>
<svg xmlns="http://www.w3.org/2000/svg" viewBox="0 0 43.49 39" fill="none">
  <g><path transform="translate(0.00 0)" fill="#ffffff" d="M-0.7182 11.3172C-1.948 12.0471 -0.5083 13.8806 -0.0369 14.5877C1.6026 17.047 3.2015 19.5424 4.7082 22.085C5.3115 23.1029 5.85 24.5212 7.284 23.7304C8.1775 23.2377 8.5037 21.7355 8.1201 20.8178C7.4375 19.1848 6.1612 17.793 5.4163 16.1717C4.8019 14.8344 4.5781 13.1766 3.377 12.2096C2.6377 11.6145 0.1853 10.7809 -0.7182 11.3172"/>
  <path transform="translate(0.00 0)" fill="#ffffff" d="M9.1851 27.5764C10.7102 28.1648 12.2078 28.3267 13.8312 28.1346C14.3878 28.0687 15.2847 28.1684 15.4733 27.4609C15.6593 26.7637 14.9377 25.7927 14.7124 25.1477C14.2054 23.6959 13.8594 21.9386 13.9467 20.396C14.0447 18.6635 14.2602 16.9414 14.5092 15.2218C14.6011 14.5874 14.9465 13.4978 14.642 12.9045C14.1223 11.8918 11.6299 11.8066 10.9188 12.6045C10.3529 13.2395 10.4578 14.2404 10.5403 15.0106C10.7258 16.7434 11.1137 18.4474 11.279 20.1848C11.4482 21.9628 11.2277 23.8394 10.4639 25.4645C10.1118 26.2135 9.5178 26.8288 9.1851 27.5764"/>
  <path transform="translate(0.00 0)" fill="#ffffff" d="M-0.6352 24.6935C-1.6561 25.0386 -2.9411 27.2238 -1.857 28.1312C-1.5691 28.3721 -1.0905 28.3294 -0.7408 28.3057C0.2167 28.2409 1.8675 28.5154 2.7286 28.1312C3.444 27.8119 3.0086 26.7561 2.697 26.3092C2.072 25.4132 0.5277 24.3005 -0.6352 24.6935"/>
  <path transform="translate(0.00 0)" fill="#ffffff" d="M13.9007 18.4953C13.4122 20.5474 14.7888 22.6524 14.171 24.7254C13.9766 25.378 13.6266 26.0083 13.1433 26.4903C12.8912 26.7417 12.4122 27.0394 12.5164 27.461C12.6709 28.0856 13.5081 28.1036 14.0063 28.1044C15.1186 28.1064 17.4665 28.6428 18.0787 27.3636C18.3447 26.8079 18.168 26.1429 18.06 25.5701C17.8131 24.2607 17.4557 22.9754 17.219 21.6631C16.6096 18.2846 16.8302 15.4727 17.5966 12.1596C16.5367 12.6549 15.0601 12.3806 14.123 13.0052C13.3842 13.4977 13.3202 14.9774 12.923 15.7498C12.1765 17.2017 10.5599 18.1108 9.8881 19.5512H9.677C9.3444 18.3328 8.894 17.0912 8.3303 15.961C7.7995 14.8968 7.0236 12.8765 5.874 12.3702C5.2689 12.1037 3.4158 12.0618 3.3683 13.0059C3.3286 13.7968 4.3377 14.8432 4.6878 15.5386C5.7214 17.5912 6.4809 19.7446 7.3328 21.8743C7.6304 22.6184 7.9431 23.9353 8.9378 23.9649C11.8237 24.0507 12.0844 19.8026 13.9008 18.4953"/>
  <path transform="translate(0.00 0)" fill="#ffffff" d="M3.4469 24.8853C2.2442 25.1443 1.4188 26.1789 1.2436 27.3648C1.1889 27.7349 1.0811 28.2645 1.3946 28.5536C1.9845 29.0974 4.5114 28.8206 5.2416 28.6026C6.0781 28.3527 6.0351 27.4274 5.8958 26.7313C5.6595 25.5497 4.7257 24.6099 3.4469 24.8853"/>
  <path transform="translate(22.09 0)" fill="#ffffff" d="M4.2 8.1L4.3 33.7"/>
  <path transform="translate(22.09 0)" fill="#ffffff" d="M4.3 20.2L16.8 8.1"/>
  <path transform="translate(22.09 0)" fill="#ffffff" d="M4.4 20.4L15.9 33.5"/>
  <path transform="translate(43.29 0)" fill="#ffffff" d="M4.4 8.2L4.6 33.6"/></g>
</svg>