<?xml version="1.0" encoding="UTF-8"?>
<svg xmlns="http://www.w3.org/2000/svg" viewBox="0 0 68.36 39" fill="none">
  <g><path transform="translate(0.00 0)" fill="#ffffff" d="M15.3397 21.9799C14.8895 20.9695 13.9846 20.1412 13.3551 19.2344C11.8771 17.1053 10.6108 14.7201 8.3705 13.2778C7.2751 12.5726 6.7371 12.6722 5.5194 12.6871C5.0598 12.6931 4.4458 12.5857 4.0869 12.9445C3.7829 13.2484 3.8184 13.7717 3.7243 14.1658C4.6698 14.498 4.5192 15.8601 4.6298 16.7001C4.9677 19.2649 4.8429 22.1592 4.5389 24.7253C4.4349 25.6039 3.4385 27.6733 4.5695 28.0681C5.3423 28.3377 7.5019 28.5703 7.364 27.1635C7.3245 26.7607 6.8395 26.4672 6.6804 26.098C6.4255 25.5065 6.3313 24.6269 6.2785 23.9862C6.1856 22.8606 6.684 21.7617 6.5306 20.6071C6.3865 19.5239 6.3129 17.4528 7.9481 17.3922C9.0812 17.3502 9.6064 18.8335 9.9559 19.6568C11.0428 22.2168 13.4332 23.8375 15.1889 25.8869C15.7712 26.5665 16.9544 29.0043 18.0626 27.9693C18.8448 27.2388 19.0551 25.8248 19.186 24.8309C19.5423 22.1258 19.1619 19.4134 19.3617 16.7001C19.4398 15.6401 20.3535 14.1529 19.8916 13.1325C19.4832 12.2303 17.3386 12.1988 16.6073 12.6113C15.09 13.4672 16.0862 14.5984 16.4633 15.7498C16.9553 17.2515 17.2027 21.4219 15.3397 21.9799"/>
  <path transform="translate(17.90 0)" fill="#ffffff" d="M9.0138 11.0423C7.3453 11.2614 5.6254 11.3614 3.9452 11.5176C3.1988 11.587 2.1869 11.5324 1.6679 12.1705C1.1931 12.7542 1.4811 13.6111 1.5957 14.271C1.8496 15.733 1.9826 17.2266 2.0402 18.706C2.1048 20.3637 1.8526 22.1398 1.5784 23.7745C1.4465 24.5614 1.0553 25.735 1.3837 26.5089C1.7529 27.3789 3.2085 27.1255 3.9452 27.1577C5.6237 27.2312 7.3412 27.3291 9.0138 27.4883C9.9589 27.5782 11.4011 27.8449 12.2856 27.4099C13.1981 26.9611 13.7525 24.4262 12.5993 23.9585C11.7036 23.5952 10.9505 24.4971 10.2809 24.9265C9.1592 25.6458 7.6284 26.3331 6.2683 26.0429C5.4296 25.864 4.6985 25.3731 4.4657 24.5137C4.2346 23.6605 4.6425 22.734 4.6802 21.8738C4.7553 20.1623 4.6283 18.4175 4.6702 16.6996C4.6927 15.7863 4.2538 14.6931 4.7903 13.8532C6.2506 11.5673 9.5302 13.7809 10.9139 14.7308C11.5423 15.1621 12.7041 15.3765 13.053 14.4805C13.2429 13.9926 12.9994 13.4523 12.8134 13.0038C12.1244 11.342 10.7416 10.8154 9.0132 11.0423"/>
  <path transform="translate(17.90 0)" fill="#ffffff" d="M8.3796 16.8643C5.8869 17.1597 7.3026 21.3801 9.3296 21.1063C9.8872 21.031 10.1395 20.4838 10.1629 19.9731C10.2123 18.8996 9.7949 16.6966 8.3796 16.8643"/>
  <path transform="translate(17.90 0)" fill="#ffffff" d="M16.61 28.1044C16.5727 26.9818 17.1429 26.1053 17.383 25.0422C17.6902 23.682 16.7891 22.8034 15.4485 23.4578C14.0454 24.1427 12.9371 25.4228 11.5414 26.1894C10.8129 26.5896 10.2494 27.0518 9.4296 26.6117C8.5124 26.1194 8.6798 24.4957 8.6908 23.5638C8.7083 22.0877 8.667 20.4932 8.814 19.0232C8.9595 17.5673 9.3085 16.4836 9.1322 15.0106C9.0567 14.3795 9.411 12.9198 8.842 12.4777C7.5557 11.4784 5.6589 12.2683 5.4486 13.7435C5.0076 16.8369 6.2281 19.9825 5.6688 23.1414C5.4815 24.1994 5.2446 25.2617 5.0072 26.3093C4.9034 26.7672 4.7031 27.3518 5.0419 27.7532C5.7959 28.6467 7.1305 28.4212 8.1624 28.4212C10.9714 28.4212 13.78 28.1044 16.61 28.1044"/>
  <path transform="translate(17.90 0)" fill="#ffffff" d="M11.4358 13.0043V13.2155C13.176 13.945 14.1025 15.7998 16.082 16.0666C16.3388 14.9428 16.6139 13.6544 15.7093 12.7072C14.8263 11.7826 12.324 12.419 11.4358 13.0043"/>
  <path transform="translate(17.90 0)" fill="#ffffff" d="M10.1687 18.0724C10.809 18.4875 10.6069 20.1158 11.2357 20.8179C11.5292 21.1457 11.8229 21.5247 12.1481 21.8196C13.1314 22.7111 14.3662 21.5229 14.5238 20.5011C14.5877 20.0871 14.3 19.7085 14.1609 19.3396C13.5754 17.7875 11.5676 16.235 10.1687 18.0724"/>
  <path transform="translate(35.68 0)" fill="#ffffff" d="M2.1 8.3L6.4 33.5L10.8 15.8L15.2 33.3L19.6 8.1Z"/>
  <path transform="translate(54.78 0)" fill="#ffffff" d="M15.2 10.4C14.09 10.49 13.79 12.18 14.99 12.09C15.92 12.02 16.02 10.32 15.1 10.4Z"/>
  <path transform="translate(54.78 0)" fill="#ffffff" d="M4.6 12.7C3.15 12.51 2.12 14.2 2.17 17.4C2.24 22.5 4.8 30.2 10.2 32.8C12.4 33.9 14.1 31.2 13.4 27.1C12.1 20.8 7.2 16.4 4.6 12.7Z"/></g>
</svg>