<?xml version="1.0" encoding="UTF-8"?>
<svg xmlns="http://www.w3.org/2000/svg" viewBox="0 0 69.96 39" fill="none">
  <g><path transform="translate(0.00 0)" fill="#ffffff" d="M2.9 8.2L10.4 33.4L17.8 8.2Z"/>
  <path transform="translate(16.50 0)" fill="#ffffff" d="M4.4 8.2L4.6 33.6"/>
  <path transform="translate(18.30 0)" fill="#ffffff" d="M2.9218 11.6775C1.2081 11.9445 -1.118 11.3708 -2.1031 13.2151C-2.6784 14.2923 -1.7618 14.8582 -1.6329 15.8549C-1.4891 16.9665 -1.7124 18.1177 -1.6008 19.2339C-1.4689 20.5532 -0.9756 21.4617 -1.2662 22.8242C-1.4722 23.7897 -1.7938 24.718 -2.0275 25.6752C-2.1101 26.0137 -2.3258 26.5604 -2.1845 26.9011C-1.928 27.5196 -0.4059 27.7575 0.1763 27.783C0.8717 27.8135 2.143 27.6757 2.4663 26.9229C2.8225 26.0935 2.1162 24.1246 1.9507 23.2465C1.7197 22.0208 1.3876 20.5833 1.4477 19.3395C1.4858 18.5509 1.8446 17.8197 1.8643 17.0164C1.8839 16.2164 1.52 14.3145 2.1403 13.701C2.6832 13.1642 4.0764 13.4681 4.7169 13.6267C8.7878 14.635 9.8376 20.0704 8.1877 23.4577C7.6642 24.5325 6.6379 25.0066 5.9474 25.9048C5.4216 26.5887 5.714 27.5407 6.6176 27.6004C9.2246 27.7725 11.2731 23.455 11.8029 21.3458C13.1918 15.8158 8.537 10.8026 2.9218 11.6775"/>
  <path transform="translate(36.04 0)" fill="#ffffff" d="M9.0138 11.0423C7.3453 11.2614 5.6254 11.3614 3.9452 11.5176C3.1988 11.587 2.1869 11.5324 1.6679 12.1705C1.1931 12.7542 1.4811 13.6111 1.5957 14.271C1.8496 15.733 1.9826 17.2266 2.0402 18.706C2.1048 20.3637 1.8526 22.1398 1.5784 23.7745C1.4465 24.5614 1.0553 25.735 1.3837 26.5089C1.7529 27.3789 3.2085 27.1255 3.9452 27.1577C5.6237 27.2312 7.3412 27.3291 9.0138 27.4883C9.9589 27.5782 11.4011 27.8449 12.2856 27.4099C13.1981 26.9611 13.7525 24.4262 12.5993 23.9585C11.7036 23.5952 10.9505 24.4971 10.2809 24.9265C9.1592 25.6458 7.6284 26.3331 6.2683 26.0429C5.4296 25.864 4.6985 25.3731 4.4657 24.5137C4.2346 23.6605 4.6425 22.734 4.6802 21.8738C4.7553 20.1623 4.6283 18.4175 4.6702 16.6996C4.6927 15.7863 4.2538 14.6931 4.7903 13.8532C6.2506 11.5673 9.5302 13.7809 10.9139 14.7308C11.5423 15.1621 12.7041 15.3765 13.053 14.4805C13.2429 13.9926 12.9994 13.4523 12.8134 13.0038C12.1244 11.342 10.7416 10.8154 9.0132 11.0423"/>
  <path transform="translate(36.04 0)" fill="#ffffff" d="M8.3796 16.8643C5.8869 17.1597 7.3026 21.3801 9.3296 21.1063C9.8872 21.031 10.1395 20.4838 10.1629 19.9731C10.2123 18.8996 9.7949 16.6966 8.3796 16.8643"/>
  <path transform="translate(36.04 0)" fill="#ffffff" d="M16.61 28.1044C16.5727 26.9818 17.1429 26.1053 17.383 25.0422C17.6902 23.682 16.7891 22.8034 15.4485 23.4578C14.0454 24.1427 12.9371 25.4228 11.5414 26.1894C10.8129 26.5896 10.2494 27.0518 9.4296 26.6117C8.5124 26.1194 8.6798 24.4957 8.6908 23.5638C8.7083 22.0877 8.667 20.4932 8.814 19.0232C8.9595 17.5673 9.3085 16.4836 9.1322 15.0106C9.0567 14.3795 9.411 12.9198 8.842 12.4777C7.5557 11.4784 5.6589 12.2683 5.4486 13.7435C5.0076 16.8369 6.2281 19.9825 5.6688 23.1414C5.4815 24.1994 5.2446 25.2617 5.0072 26.3093C4.9034 26.7672 4.7031 27.3518 5.0419 27.7532C5.7959 28.6467 7.1305 28.4212 8.1624 28.4212C10.9714 28.4212 13.78 28.1044 16.61 28.1044"/>
  <path transform="translate(36.04 0)" fill="#ffffff" d="M11.4358 13.0043V13.2155C13.176 13.945 14.1025 15.7998 16.082 16.0666C16.3388 14.9428 16.6139 13.6544 15.7093 12.7072C14.8263 11.7826 12.324 12.419 11.4358 13.0043"/>
  <path transform="translate(36.04 0)" fill="#ffffff" d="M10.1687 18.0724C10.809 18.4875 10.6069 20.1158 11.2357 20.8179C11.5292 21.1457 11.8229 21.5247 12.1481 21.8196C13.1314 22.7111 14.3662 21.5229 14.5238 20.5011C14.5877 20.0871 14.3 19.7085 14.1609 19.3396C13.5754 17.7875 11.5676 16.235 10.1687 18.0724"/>
  <path transform="translate(53.82 0)" fill="#ffffff" d="M8.1715 9.38C7.1587 9.4705 6.8614 11.1572 8.0661 11.0706C8.994 11.0039 9.0974 9.2972 8.1715 9.38"/>
  <path transform="translate(53.82 0)" fill="#ffffff" d="M11.3398 11.7368C11.5557 11.7178 11.7666 11.7019 11.9693 11.6156C13.4039 11.0041 11.4822 9.354 11.346 10.8925C11.3214 11.1706 11.3398 11.4577 11.3398 11.7368"/>
  <path transform="translate(53.82 0)" fill="#ffffff" d="M10.9127 11.9032C6.3651 11.8448 2.4738 14.5568 1.8663 19.2339C1.7564 20.08 1.9879 20.9348 2.1073 21.7682C2.2437 22.7207 2.1242 23.6695 2.353 24.6193C2.9174 26.9619 4.8544 28.7808 7.3266 28.8415C8.8231 28.8783 10.3907 28.866 11.7616 28.181C14.6481 26.7387 16.1913 22.5991 16.5884 19.5507C17.0317 16.1485 15.2584 14.0347 12.2896 12.7432C11.817 12.5376 11.4353 11.9099 10.9127 11.9032"/>
  <path transform="translate(53.82 0)" fill="#ffffff" d="M9.8609 15.0412C12.3328 14.7201 13.5593 17.2239 13.5567 19.34C13.5529 22.4967 11.79 25.5833 8.4882 25.9623C5.3766 26.3194 5.0446 23.3095 4.8885 21.0295C4.8146 19.9502 4.6244 18.8014 5.0135 17.7561C5.6732 15.9838 8.1626 15.2618 9.8609 15.0412"/></g>
</svg>