<?xml version="1.0" encoding="UTF-8" standalone="no"?>
<!-- Created with Inkscape (http://www.inkscape.org/) -->

<svg
   version="1.1"
   id="svg1"
   width="166.08"
   height="36.16"
   viewBox="0 0 166.08 36.16"
   xmlns="http://www.w3.org/2000/svg"
   xmlns:svg="http://www.w3.org/2000/svg">
  <defs
     id="defs1" />
  <g
     id="g1">
    <path
       style="fill:#ffffff"
       d="m 61.987046,35.107212 c -0.582863,-0.889561 -0.264935,-2.308979 1.141892,-5.098087 1.079384,-2.139934 1.163067,-3.532292 0.297602,-4.951695 -0.923665,-1.514853 -2.417116,-1.86334 -5.966485,-1.392239 -6.028963,0.800212 -7.912307,2.773713 -7.715451,8.084794 0.05674,1.530863 -0.05129,1.949311 -0.660938,2.56 -0.61778,0.618838 -1.129486,0.746197 -3.36,0.836273 -2.959191,0.119503 -4.123741,-0.20053 -4.869099,-1.33809 -0.700292,-1.06878 -0.395487,-2.011986 1.31755,-4.077104 1.6616,-2.00311 3.527621,-5.725789 4.745298,-9.466786 0.842862,-2.589476 1.843774,-4.207606 5.606808,-9.064278 1.990128,-2.5685118 2.88821,-4.8535968 2.88821,-7.3487788 0,-1.655005 0.102785,-1.965621 0.843154,-2.547996 1.078412,-0.84827796 3.328665,-0.90606596 4.019587,-0.103225 0.265064,0.308 0.866901,1.816365 1.337416,3.351922 0.470515,1.535556 2.525856,6.1435568 4.567425,10.2399998 2.041569,4.096443 4.199298,8.600078 4.794953,10.008078 0.895919,2.11776 1.441849,2.893709 3.160237,4.491749 2.302453,2.1412 2.507917,2.797912 1.429025,4.567507 C 74.527836,35.559144 73.397158,35.84 67.590088,35.84 c -4.986012,0 -5.135731,-0.01958 -5.603042,-0.732788 z M 59.106978,17.774545 C 60.045974,16.83555 60.074172,16.271253 59.270551,14.501221 58.625263,13.079929 57.308577,12.16 55.919583,12.16 c -0.950723,0 -1.402285,0.713492 -1.662664,2.627097 -0.151889,1.11628 -0.05309,1.542376 0.528551,2.279564 1.29257,1.638235 3.095782,1.93361 4.321508,0.707884 z M 15.605107,34.91459 C 13.599875,34.601762 13.523345,34.124048 14.847037,30.18257 15.486608,28.278156 16.185212,25.784 16.399489,24.64 16.975044,21.567184 16.869535,14.546422 16.180679,10.08 15.854946,7.9680002 15.584836,5.5200002 15.580435,4.6400002 c -0.0079,-1.580175 0.0098,-1.608811 1.431998,-2.311043 1.972958,-0.974207 6.033023,-1.37910696 10.399999,-1.037164 1.936,0.151592 4.686973,0.282954 6.113273,0.291914 2.312223,0.01453 2.687054,0.103206 3.4586,0.818251 1.874631,1.737349 3.30978,6.487401 2.934226,9.7116918 -0.243666,2.091984 -0.600682,2.839485 -1.873857,3.923387 l -0.983202,0.837037 1.333391,2.608974 c 1.533783,3.001069 1.89011,5.049295 1.370342,7.876952 -0.428758,2.332541 -2.015955,5.679351 -2.995627,6.316666 -0.508445,0.330763 -2.210891,0.53149 -5.850006,0.689747 -2.823073,0.122769 -6.063073,0.357654 -7.2,0.521967 -2.242556,0.324103 -6.124591,0.336642 -8.114465,0.02621 z m 14.463216,-3.684186 c 2.086943,-1.085835 3.264109,-3.317805 3.264109,-6.188924 0,-3.179794 -0.908513,-3.871669 -5.200088,-3.96011 -2.900451,-0.05977 -4.00742,-0.455845 -4.970991,-1.778615 l -0.637512,-0.875164 -0.233383,3.735191 c -0.3173,5.078236 -0.145073,5.787561 1.902372,7.835007 1.59843,1.59843 1.765114,1.682211 3.346798,1.682211 0.915523,0 2.053436,-0.202318 2.528695,-0.449596 z m -5.64262,-16.057951 c 0.539818,-0.279151 1.230129,-0.442526 1.534024,-0.363056 0.303896,0.07947 1.754189,0.03884 3.222876,-0.09029 2.351543,-0.206754 2.758651,-0.337454 3.410084,-1.094789 0.59454,-0.691196 0.739745,-1.235399 0.739745,-2.77244 0,-4.1256258 -2.205536,-6.6918778 -5.751258,-6.6918778 -1.461966,0 -1.767918,0.133542 -3.082863,1.345616 -1.86867,1.72248 -2.719604,3.397352 -2.734986,5.3831998 -0.01316,1.698716 0.871569,4.791184 1.370716,4.791184 0.170595,0 0.751843,-0.228396 1.291662,-0.507547 z M 79.5445,34.898309 C 77.541977,34.419577 77.462552,34.100083 78.466009,30.56 c 0.5174,-1.825329 0.672169,-3.661731 0.836039,-9.92 0.236311,-9.024779 -0.163434,-14.0631318 -1.184654,-14.9312938 -0.732241,-0.622495 -0.821151,-2.118078 -0.178188,-2.997382 0.36306,-0.496514 1.032348,-0.653817 3.571989,-0.839523 3.041588,-0.222411 3.175425,-0.203181 5.001518,0.718628 2.746044,1.386199 6.222259,4.873007 9.283324,9.3116128 2.046227,2.967071 6.310873,8.632839 7.138563,9.483884 0.0567,0.05826 0.41554,-0.06133 0.79752,-0.265757 1.26403,-0.676493 1.60031,-2.177843 1.60031,-7.144796 0,-4.4785118 -0.0263,-4.6570358 -0.95594,-6.4902778 -1.25189,-2.468678 -1.24698,-3.632943 0.0207,-4.900589 0.54159,-0.541598 1.3464,-1.075499 1.78845,-1.186447 1.22288,-0.306924 4.14029,0.08721 5.47545,0.739711 1.02304,0.499959 1.20553,0.753737 1.29152,1.795984 0.0568,0.68861 -0.20724,2.073126 -0.61031,3.2 -0.65512,1.831606 -0.72793,2.783483 -0.93518,12.2262458 l -0.22474,10.24 -0.89937,2.08 c -1.98078,4.581006 -3.22704,4.690382 -6.34927,0.557236 -0.96276,-1.27448 -3.48595,-4.010178 -5.607086,-6.07933 C 93.795088,21.737439 92.390019,19.958594 90.655655,16.446309 89.360381,13.823233 87.85356,12.16 86.772433,12.16 c -0.755499,0 -2.451058,1.421112 -3.028991,2.538711 -0.350529,0.677847 -0.381723,1.371838 -0.145722,3.241883 0.19969,1.582322 0.184572,3.228218 -0.04513,4.913228 -0.540166,3.962485 0.115772,7.736471 1.522775,8.761401 0.800365,0.583026 0.825505,0.678717 0.429495,1.63477 -0.231348,0.558523 -0.720827,1.225761 -1.087733,1.482751 -0.704001,0.493102 -3.154289,0.576359 -4.872629,0.165565 z m 38.79348,-0.486187 c -1.20695,-0.425908 -2.26398,-0.843896 -2.34894,-0.928861 -0.14581,-0.145802 0.31041,-2.043203 1.81331,-7.54162 0.77264,-2.826699 0.82461,-4.886547 0.17009,-6.741641 -0.33058,-0.936977 -0.48311,-2.667776 -0.48999,-5.560233 -0.009,-3.8942478 -0.0673,-4.2928828 -0.79836,-5.4797668 -1.19197,-1.935282 -1.01738,-3.436398 0.60834,-5.230405 1.16908,-1.290105 2.36912,-1.700389 5.27834,-1.804631 1.51892,-0.05442 4.41767,-0.20448096 6.44167,-0.33345696 4.40599,-0.280764 6.43171,0.0671 9.58913,1.64669996 4.22084,2.1116 7.97744,7.369298 8.72746,12.2148798 0.86198,5.568838 -1.37577,11.461775 -6.655,17.525424 -1.57897,1.813583 -1.81452,1.962088 -3.65498,2.304357 -2.87088,0.533898 -3.84661,0.01195 -3.84661,-2.057663 0,-0.585201 0.72649,-1.509441 2.68342,-3.413828 2.96348,-2.883927 3.77007,-4.446214 4.15679,-8.051377 0.32939,-3.070715 -0.2498,-7.806129 -1.1784,-9.634471 -2.12356,-4.1811368 -7.76092,-7.1594328 -11.90181,-6.2878978 l -1.28,0.269402 -0.2078,4.466483 c -0.11429,2.4565658 -0.36629,4.8718578 -0.56,5.3673158 -0.57042,1.45898 -0.42013,3.487626 0.81929,11.058746 l 1.17204,7.159578 -0.75328,0.568201 c -1.91034,1.440973 -4.60029,1.60848 -7.78471,0.484765 z"
       id="path1" />
  </g>
</svg>
