<?xml version="1.0" encoding="UTF-8" standalone="no"?>
<!-- Created with Inkscape (http://www.inkscape.org/) -->

<svg
   version="1.1"
   id="svg1"
   width="246.08"
   height="36.16"
   viewBox="0 0 246.08 36.16"
   xmlns="http://www.w3.org/2000/svg"
   xmlns:svg="http://www.w3.org/2000/svg">
  <defs
     id="defs1" />
  <g
     id="g1">
    <path
       style="fill:#ffffff"
       d="M 44.745055,35.188452 C 41.471533,34.308776 39.141774,32.452848 37.656593,29.541655 36.450929,27.178357 36.370987,26.697121 35.570113,16.981441 35.134666,11.69888 39.099705,4.634854 43.961254,2.031972 c 2.30631,-1.23480195 4.880537,-1.82626295 8.963406,-2.05945195 3.013202,-0.172096 3.577309,-0.128944 3.736473,0.285831 0.103107,0.268692 1.192995,0.87276395 2.421973,1.34238295 7.8378,2.99499 10.399173,9.014622 7.718243,18.139093 -2.055533,6.995948 -5.33491,12.206388 -8.90573,14.149871 -3.145173,1.711818 -9.337616,2.323385 -13.150564,1.298754 z m 8.322381,-6.717512 c 4.120806,-1.291608 7.669861,-7.318953 7.669861,-13.025688 0,-2.841444 -0.579667,-4.653751 -2.070387,-6.472978 -2.027472,-2.474262 -4.190983,-2.920535 -8.444409,-1.74185 -3.075763,0.852338 -5.157751,1.93358 -6.360135,3.303019 -1.552977,1.768743 -1.797827,2.973958 -1.598727,7.869331 0.241679,5.942315 1.202883,8.615168 3.538887,9.840702 1.997767,1.048086 4.406179,1.123493 7.26491,0.227464 z m 68.180714,6.825783 c -1.29877,-0.667461 -1.93423,-1.880005 -2.47116,-4.715282 -0.69264,-3.657478 -0.45106,-7.386944 0.68404,-10.56 0.7311,-2.043708 0.87954,-3.058707 0.99992,-6.837078 0.11751,-3.688248 0.0553,-4.568411 -0.36853,-5.215276 -0.67042,-1.023202 -2.3448,-2.024951 -3.38711,-2.026449 -0.85252,-0.0012 -2.71915,1.187282 -4.84893,3.087389 -3.04289,2.714738 -4.96357,-0.271018 -2.68046,-4.16685 1.24792,-2.129415 2.41119,-2.553037 7.56138,-2.753604 3.90725,-0.152163 4.41683,-0.240901 5.3335,-0.928771 l 1.0135,-0.76053395 10.39637,0.136397 c 11.39997,0.149564 11.41663,0.152556 11.41663,2.05031595 0,0.856909 -0.23371,1.243252 -1.18615,1.960818 -0.65239,0.491503 -1.75793,1.442248 -2.45677,2.112767 -1.6363,1.569984 -2.13367,1.820875 -3.60973,1.820875 -0.83766,0 -1.7991,-0.360694 -3.09727,-1.161969 -3.0036,-1.853932 -5.27419,-1.464358 -6.59104,1.130851 -0.75812,1.494078 -1.42113,7.140723 -1.41266,12.031118 0.008,4.400076 0.58854,7.286247 2.04239,10.147243 0.52318,1.029544 0.95123,2.152272 0.95123,2.494951 0,0.836862 -1.23879,1.59675 -3.45232,2.117681 -2.27676,0.535814 -3.84085,0.547264 -4.83683,0.03541 z m 64.45506,-0.115083 c -0.33622,-0.33622 -0.48556,-0.929556 -0.42285,-1.68 l 0.0969,-1.160199 7.15962,-3.754401 c 3.93779,-2.064921 7.27478,-3.683227 7.41553,-3.596236 0.58191,0.35964 1.32466,3.411499 1.10946,4.558619 -0.53526,2.853153 -1.92019,4.070782 -5.16842,4.544049 -1.2079,0.175991 -3.13219,0.60868 -4.27619,0.961532 -2.57444,0.794052 -5.19065,0.850072 -5.91409,0.126636 z m 28.98494,0.115083 c -1.29877,-0.667461 -1.93423,-1.880005 -2.47116,-4.715282 -0.69264,-3.657478 -0.45106,-7.386944 0.68404,-10.56 0.7311,-2.043708 0.87954,-3.058707 0.99992,-6.837078 0.11751,-3.688248 0.0553,-4.568411 -0.36853,-5.215276 -0.67042,-1.023202 -2.3448,-2.024951 -3.38711,-2.026449 -0.85252,-0.0012 -2.71915,1.187282 -4.84893,3.087389 -3.04288,2.714738 -4.96356,-0.271018 -2.68045,-4.16685 1.24792,-2.129415 2.41118,-2.553037 7.56137,-2.753604 3.90725,-0.152163 4.41683,-0.240901 5.3335,-0.928771 l 1.0135,-0.76053395 10.39637,0.136397 c 11.39997,0.149564 11.41663,0.152556 11.41663,2.05031595 0,0.856909 -0.23371,1.243252 -1.18615,1.960818 -0.65239,0.491503 -1.75793,1.442248 -2.45677,2.112767 -1.6363,1.569984 -2.13367,1.820875 -3.60973,1.820875 -0.83766,0 -1.7991,-0.360694 -3.09727,-1.161969 -3.0036,-1.853932 -5.27419,-1.464358 -6.59104,1.130851 -0.75812,1.494078 -1.42113,7.140723 -1.41266,12.031118 0.008,4.400076 0.58854,7.286247 2.04239,10.147243 0.52318,1.029544 0.95123,2.152272 0.95123,2.494951 0,0.836862 -1.23879,1.59675 -3.45232,2.117681 -2.27676,0.535814 -3.84085,0.547264 -4.83683,0.03541 z m -57.45624,-0.64807 c -0.58286,-0.889561 -0.26493,-2.308979 1.1419,-5.098087 1.07938,-2.139934 1.16306,-3.532292 0.2976,-4.951695 -0.92367,-1.514853 -2.41712,-1.86334 -5.96649,-1.392239 -6.02896,0.800212 -7.9123,2.773713 -7.71545,8.084794 0.0567,1.530863 -0.0513,1.949311 -0.66094,2.56 -0.61778,0.618838 -1.12948,0.746197 -3.36,0.836273 -2.95919,0.119503 -4.12374,-0.20053 -4.86909,-1.33809 -0.7003,-1.06878 -0.39549,-2.011986 1.31755,-4.077104 1.6616,-2.00311 3.52762,-5.725789 4.74529,-9.466786 0.84287,-2.589476 1.84378,-4.207606 5.60681,-9.064278 1.99013,-2.568512 2.88821,-4.853596 2.88821,-7.348778 0,-1.655005 0.10279,-1.965622 0.84316,-2.54799595 1.07841,-0.848279 3.32866,-0.906067 4.01958,-0.103226 0.26507,0.30799995 0.8669,1.81636495 1.33742,3.35192195 0.47051,1.535557 2.52585,6.143557 4.56742,10.24 2.04157,4.096443 4.1993,8.600078 4.79496,10.008078 0.89592,2.11776 1.44185,2.893709 3.16023,4.491749 2.30246,2.1412 2.50792,2.797912 1.42903,4.567507 -1.03639,1.699888 -2.16707,1.980744 -7.97414,1.980744 -4.98602,0 -5.13573,-0.01958 -5.60305,-0.732788 z m -2.88006,-17.332667 c 0.93899,-0.938995 0.96719,-1.503292 0.16357,-3.273324 -0.64529,-1.421292 -1.96197,-2.341221 -3.35097,-2.341221 -0.95072,0 -1.40228,0.713492 -1.66266,2.627097 -0.15189,1.11628 -0.0531,1.542376 0.52855,2.279564 1.29257,1.638235 3.09578,1.93361 4.32151,0.707884 z M 17.70321,34.54164 c -0.33622,-0.33622 -0.485563,-0.929556 -0.422857,-1.68 l 0.09694,-1.160199 7.159616,-3.754401 c 3.937789,-2.064921 7.274779,-3.683227 7.415533,-3.596236 0.58191,0.35964 1.32466,3.411499 1.109459,4.558619 -0.535255,2.853153 -1.920192,4.070782 -5.168422,4.544049 -1.207902,0.175991 -3.132186,0.60868 -4.276186,0.961532 -2.574444,0.794052 -5.19065,0.850072 -5.914087,0.126636 z m 53.726155,0.21811 c -2.002523,-0.478732 -2.081948,-0.798226 -1.078491,-4.338309 0.5174,-1.825329 0.672168,-3.661731 0.836039,-9.92 C 71.423224,11.476662 71.023479,6.43831 70.002259,5.570148 69.270017,4.947653 69.181108,3.452069 69.82407,2.572766 c 0.363061,-0.496515 1.032349,-0.653817 3.57199,-0.839524 3.041587,-0.22241 3.175425,-0.20318 5.001517,0.718628 2.746045,1.386199 6.22226,4.873007 9.283325,9.311613 2.046227,2.967071 6.310877,8.632839 7.138563,9.483884 0.05666,0.05826 0.415543,-0.06133 0.797516,-0.265757 1.264039,-0.676493 1.600317,-2.177843 1.600317,-7.144796 0,-4.478511 -0.02629,-4.657035 -0.955947,-6.490278 -1.251885,-2.468677 -1.246975,-3.632943 0.02067,-4.900588 0.541598,-0.541598 1.346403,-1.0755 1.788454,-1.186448 1.222881,-0.30692295 4.140295,0.08721 5.475455,0.739712 1.02303,0.499959 1.20552,0.753736 1.29151,1.795984 0.0568,0.68861 -0.20724,2.073125 -0.6103,3.2 -0.65512,1.831606 -0.72793,2.783483 -0.93518,12.226245 l -0.22474,10.24 -0.89937,2.08 c -1.98078,4.581006 -3.227044,4.690382 -6.349275,0.557236 -0.962757,-1.27448 -3.485946,-4.010178 -5.607087,-6.07933 -4.531536,-4.420467 -5.936605,-6.199312 -7.67097,-9.711597 -1.295272,-2.623076 -2.802094,-4.286309 -3.88322,-4.286309 -0.755499,0 -2.451059,1.421112 -3.028992,2.538711 -0.350528,0.677847 -0.381723,1.371838 -0.145722,3.241883 0.19969,1.582322 0.184573,3.228218 -0.04513,4.913228 -0.540166,3.962485 0.115772,7.736471 1.522774,8.761401 0.800366,0.583026 0.825506,0.678717 0.429496,1.63477 -0.231348,0.558523 -0.720828,1.225761 -1.087733,1.482751 -0.704001,0.493102 -3.154289,0.576359 -4.872629,0.165565 z M 178.8173,33.061839 c -1.92265,-0.918203 -4.72523,-3.813764 -5.97092,-6.169023 -1.73736,-3.284879 -2.47216,-6.267893 -2.48087,-10.071375 -0.008,-3.653312 0.30677,-4.937023 2.27756,-9.277676 1.65251,-3.639652 2.60704,-4.472617 5.53423,-4.829429 0.968,-0.117995 3.344,-0.412167 5.28,-0.653716 1.936,-0.241548 5.68,-0.436946 8.32,-0.434216 4.2763,0.0044 4.93966,0.07926 6.08,0.685949 0.704,0.374542 1.52469,0.951569 1.82375,1.282281 0.51346,0.567788 0.50454,0.670858 -0.16,1.849653 -1.00066,1.775041 -3.50347,3.448014 -5.43612,3.633717 -1.24503,0.119632 -1.88715,-0.02393 -3.29657,-0.737032 -1.53647,-0.777384 -2.00373,-0.865266 -3.82377,-0.71917 -2.41728,0.194035 -5.28123,1.492531 -6.33999,2.874502 -0.37801,0.493418 -1.31366,1.506427 -2.07921,2.25113 -2.16373,2.104811 -2.4073,2.784644 -2.17422,6.068375 0.25165,3.545161 0.87599,4.817022 3.74043,7.61962 2.79856,2.738144 3.20973,4.417995 1.61939,6.615956 -0.63634,0.879456 -1.09064,0.881086 -2.91369,0.01045 z m -168.000003,-0.64 C 8.8946423,31.503636 6.0920653,28.608075 4.8463784,26.252816 3.1090185,22.967937 2.3742158,19.984923 2.3655074,16.181441 2.3571474,12.528129 2.6722784,11.244418 4.6430651,6.903765 6.2955765,3.264113 7.2501041,2.431148 10.177297,2.074336 c 0.968,-0.117995 3.344,-0.412167 5.28,-0.653716 1.936,-0.241548 5.68,-0.43694595 8.32,-0.43421595 4.276298,0.0044 4.939654,0.0792599 6.08,0.68594895 0.704,0.374542 1.524689,0.951569 1.823753,1.282281 0.513452,0.567788 0.504536,0.670858 -0.16,1.849653 C 30.520384,6.579328 28.017578,8.252301 26.084922,8.438004 24.839895,8.557636 24.197776,8.414074 22.788355,7.700972 21.251883,6.923588 20.784623,6.835706 18.964582,6.981802 16.547306,7.175837 13.683353,8.474333 12.6246,9.856304 c -0.378016,0.493418 -1.313662,1.506427 -2.079212,2.25113 -2.1637297,2.104811 -2.4073048,2.784644 -2.1742187,6.068375 0.251642,3.545161 0.875991,4.817022 3.7404247,7.61962 2.798557,2.738144 3.209734,4.417995 1.619387,6.615956 -0.636335,0.879456 -1.09064,0.881086 -2.913684,0.01045 z"
       id="path1" />
  </g>
</svg>
