<?xml version="1.0" encoding="UTF-8" standalone="no"?>
<!-- Created with Inkscape (http://www.inkscape.org/) -->

<svg
   version="1.1"
   id="svg1"
   width="354.23999"
   height="36.16"
   viewBox="0 0 354.23999 36.16"
   xmlns="http://www.w3.org/2000/svg"
   xmlns:svg="http://www.w3.org/2000/svg">
  <defs
     id="defs1" />
  <g
     id="g1">
    <path
       style="fill:#ffffff"
       d="M 59.197836,36.402947 C 57.8279,35.978109 54.73546,33.486251 54.622679,32.716329 c -0.294464,-2.010215 3.094306,-3.044807 5.669674,-1.730952 1.292087,0.659174 1.628078,0.685173 6.102343,0.472198 4.422457,-0.210508 4.829252,-0.284068 6.163501,-1.114525 1.062831,-0.661523 1.481154,-1.152248 1.634086,-1.916907 0.32599,-1.629951 0.242334,-2.828422 -0.266056,-3.811538 -0.659693,-1.275707 -3.016385,-3.216227 -3.90599,-3.216227 -0.408321,0 -0.742401,-0.115072 -0.742401,-0.255716 0,-0.568768 -2.295592,-1.024284 -5.161925,-1.024284 -2.813175,0 -3.200638,-0.08087 -5.268546,-1.099611 -2.089182,-1.029223 -2.318395,-1.250505 -3.580794,-3.456894 -1.294341,-2.262215 -1.348734,-2.466991 -1.348734,-5.077559 0,-3.5563336 0.89722,-5.5065736 3.375668,-7.3375106 l 1.70099,-1.256595 5.889168,-0.386637 5.889168,-0.386637 2.311851,1.719108 c 2.259877,1.68046 2.295229,1.728332 1.572502,2.129383 -1.002062,0.556058 -2.597778,0.534119 -4.007986,-0.0551 -2.253503,-0.941574 -8.137509,0.04774 -9.878096,1.660858 -0.416092,0.385621 -1.20405,0.963495 -1.751018,1.284163 -0.920064,0.539404 -0.979558,0.678823 -0.795001,1.863035 0.109718,0.7039996 0.495377,1.8559996 0.857021,2.5599996 1.554064,3.025244 2.923911,3.663312 7.885375,3.672972 3.154406,0.0061 3.858075,0.111592 5.579511,0.836134 4.281436,1.802032 8.27802,5.836401 8.771691,8.854623 0.495122,3.027089 -0.718484,6.144679 -3.458677,8.884872 -1.277524,1.277524 -2.318546,1.47986 -9.702168,1.885744 -7.267248,0.399487 -7.641602,0.399079 -8.96,-0.0098 z m 66.727754,-0.157558 c -3.27352,-0.879676 -5.60328,-2.735604 -7.08846,-5.646797 -1.20566,-2.363298 -1.2856,-2.844534 -2.08648,-12.560214 -0.39188,-4.75404 2.91663,-11.3529456 7.07703,-14.1152896 2.50432,-1.662777 4.45246,-2.274729 9.13427,-2.869274 4.24323,-0.53884999 4.25037,-0.53865799 4.76274,0.128511 0.28223,0.367493 1.57066,1.096222 2.86317,1.619397 4.16793,1.687069 6.17641,3.540342 7.60741,7.019565 1.66863,4.0569456 0.65706,10.4871586 -2.75853,17.5350506 -2.60678,5.378958 -5.53149,7.952673 -10.14918,8.931162 -2.75968,0.584778 -7.10181,0.565247 -9.36197,-0.04211 z m 8.32239,-6.717512 c 4.1208,-1.291608 7.66986,-7.318953 7.66986,-13.025688 0,-2.841444 -0.57967,-4.653751 -2.07039,-6.472978 -2.02747,-2.4742616 -4.19098,-2.9205346 -8.44441,-1.7418496 -3.07576,0.852337 -5.15775,1.9335796 -6.36014,3.3030186 -1.55297,1.768743 -1.79782,2.973958 -1.59872,7.869331 0.24168,5.942315 1.20288,8.615168 3.53888,9.840702 1.99777,1.048086 4.40618,1.123493 7.26492,0.227464 z m 76.3292,6.244564 c -0.6176,-0.542266 -1.64432,-1.696227 -2.28158,-2.564357 -0.63727,-0.868131 -1.77713,-1.94086 -2.53302,-2.383842 -1.43995,-0.843868 -2.00846,-1.833386 -3.20927,-5.585864 -1.16229,-3.632095 -2.65233,-5.923371 -4.03139,-6.199183 -1.46416,-0.292832 -1.26362,-1.536866 0.43591,-2.704167 1.09346,-0.751027 1.79178,-0.961375 3.56312,-1.073284 1.91734,-0.121133 2.30129,-0.253328 2.96,-1.019121 0.61326,-0.712958 0.75688,-1.242836 0.75688,-2.792367 0,-4.1256256 -2.20553,-6.6918776 -5.75125,-6.6918776 -1.46197,0 -1.76792,0.133543 -3.08287,1.345617 -2.66633,2.457737 -3.39297,5.2888016 -2.20076,8.5743826 0.46834,1.290701 0.48065,1.981616 0.11874,6.663951 -0.46414,6.004797 -0.30159,7.09895 1.4892,10.024282 2.00483,3.27496 1.355,4.11166 -3.37306,4.343075 -3.4046,0.166639 -6.05731,-0.211843 -6.50936,-0.928738 -0.25792,-0.40903 -0.0611,-1.364693 0.82397,-4 0.63957,-1.904414 1.33817,-4.39857 1.55245,-5.54257 0.57556,-3.072816 0.47005,-10.093578 -0.21881,-14.56 -0.32573,-2.1119996 -0.59584,-4.5599996 -0.60024,-5.4399996 -0.008,-1.580175 0.01,-1.60881 1.43199,-2.311043 1.97296,-0.974207 6.03303,-1.379106 10.4,-1.037164 1.936,0.151592 4.68698,0.282954 6.11328,0.291915 2.31222,0.01453 2.68705,0.103205 3.4586,0.81825 1.8641,1.72759 3.30992,6.485863 2.93888,9.6720306 -0.11704,1.005075 -0.70123,2.667381 -1.46197,4.16 -3.03332,5.951559 -2.34045,10.061872 2.54039,15.070191 1.69353,1.737757 2.25082,2.529752 2.25082,3.198716 0,1.305831 -0.55387,1.657104 -2.61286,1.657104 -1.60433,0 -1.99127,-0.128548 -2.96779,-0.985937 z M 41.917837,36.15545 C 39.679622,35.17087 39.414951,32.963432 40.646063,25.548494 41.882196,18.103317 41.851146,14.529653 40.515631,10.536458 39.959759,8.8744024 39.278601,7.2644194 39.001945,6.9587184 c -0.276655,-0.305701 -0.570618,-1.204622 -0.65325,-1.997602 -0.149838,-1.43792 -0.146974,-1.442689 1.069451,-1.780475 0.67083,-0.186282 3.16765,-0.339497 5.548489,-0.340478 3.402149,-0.0014 4.481042,0.104851 5.04,0.49636 0.933078,0.653554 0.913821,1.842067 -0.06264,3.86618 -1.884452,3.9062736 -2.266679,5.9289076 -2.259326,11.9556746 0.0053,4.384619 0.172297,6.590686 0.769227,10.164692 0.885482,5.301655 0.775786,5.912444 -1.160372,6.460982 -1.762654,0.499382 -4.63381,0.697746 -5.375687,0.371398 z M 238.41245,35.70559 c -0.58287,-0.889561 -0.26494,-2.308979 1.14189,-5.098087 1.07938,-2.139934 1.16307,-3.532292 0.2976,-4.951695 -0.92366,-1.514853 -2.41712,-1.86334 -5.96648,-1.392239 -6.02897,0.800212 -7.91231,2.773713 -7.71545,8.084794 0.0567,1.530863 -0.0513,1.949311 -0.66094,2.56 -0.61778,0.618838 -1.12949,0.746197 -3.36,0.836273 -2.95919,0.119503 -4.12374,-0.20053 -4.8691,-1.33809 -0.70029,-1.06878 -0.39549,-2.011986 1.31755,-4.077104 1.6616,-2.00311 3.52762,-5.725789 4.7453,-9.466786 0.84286,-2.589476 1.84377,-4.207606 5.6068,-9.064278 1.99013,-2.5685116 2.88821,-4.8535966 2.88821,-7.3487776 0,-1.655005 0.10279,-1.965622 0.84316,-2.547996 1.07841,-0.848279 3.32866,-0.90606699 4.01959,-0.103226 0.26506,0.308 0.8669,1.816365 1.33741,3.351922 0.47052,1.535557 2.52586,6.1435566 4.56743,10.2399996 2.04156,4.096443 4.19929,8.600078 4.79495,10.008078 0.89592,2.11776 1.44185,2.893709 3.16023,4.491749 2.30246,2.1412 2.50792,2.797912 1.42903,4.567507 -1.03639,1.699888 -2.16707,1.980744 -7.97414,1.980744 -4.98601,0 -5.13573,-0.01958 -5.60304,-0.732788 z m -2.88007,-17.332667 c 0.93899,-0.938995 0.96719,-1.503292 0.16357,-3.273324 -0.64529,-1.421292 -1.96197,-2.341221 -3.35097,-2.341221 -0.95072,0 -1.40228,0.713492 -1.66266,2.627097 -0.15189,1.11628 -0.0531,1.542376 0.52855,2.279564 1.29257,1.638235 3.09578,1.93361 4.32151,0.707884 z M 99.203748,35.598577 c -0.336219,-0.33622 -0.485563,-0.929556 -0.422857,-1.68 l 0.09694,-1.160199 7.159619,-3.754401 c 3.93779,-2.064921 7.27478,-3.683227 7.41554,-3.596236 0.58191,0.35964 1.32466,3.411499 1.10945,4.558619 -0.53525,2.853153 -1.92019,4.070782 -5.16842,4.544049 -1.2079,0.175991 -3.13218,0.60868 -4.27618,0.961532 -2.57445,0.794052 -5.190663,0.850072 -5.914096,0.126636 z m 67.354092,0.181783 c -1.144,-0.159306 -3.05468,-0.436423 -4.24594,-0.615815 -1.19127,-0.179392 -2.60242,-0.326167 -3.13589,-0.326167 -1.15898,0 -2.43921,-0.62183 -3.40098,-1.65192 -0.76932,-0.823958 -2.53569,-4.535137 -3.47836,-7.30808 -0.88836,-2.613177 -0.81791,-7.713335 0.15018,-10.871929 1.71528,-5.5965006 4.85154,-9.5112066 8.73293,-10.9005136 1.11461,-0.398966 1.21852,-0.378763 1.82423,0.354689 1.69123,2.047931 1.24729,3.945028 -1.56771,6.6992566 -2.84817,2.786689 -3.47322,4.062786 -3.72459,7.604128 -0.23309,3.283732 0.0105,3.963565 2.17422,6.068375 0.76555,0.744704 1.70119,1.757713 2.07921,2.251131 1.05508,1.377173 3.92321,2.680507 6.32258,2.873106 2.38718,0.191619 4.40972,-0.576097 5.76688,-2.18899 0.67501,-0.802196 0.76594,-1.164079 0.61692,-2.455069 -0.12844,-1.112708 0.0126,-2.011317 0.53183,-3.389143 l 0.70663,-1.874959 3.26713,0.12094 c 4.08406,0.151181 4.98072,0.606041 4.98072,2.526633 0,0.705595 -0.216,1.799862 -0.48,2.431703 -0.2974,0.711778 -0.48,2.171388 -0.48,3.836871 v 2.68807 l -1.34561,1.459822 c -2.30084,2.496113 -3.22072,2.805847 -8.57438,2.887093 -2.552,0.03873 -5.576,-0.05993 -6.72,-0.219232 z M 6.4433761,35.0105 C 5.2364223,34.584592 4.1793976,34.166604 4.0944323,34.081639 3.9486303,33.935837 4.4048442,32.038436 5.9077505,26.540019 6.6803845,23.71332 6.7323531,21.653472 6.0778377,19.798378 5.7472529,18.861401 5.5947289,17.130602 5.5878506,14.238145 5.5785901,10.343897 5.520512,9.9452624 4.7894901,8.7583784 3.5975174,6.8230964 3.7721086,5.3219804 5.3978259,3.5279734 6.566911,2.2378684 7.7669462,1.8275844 10.676171,1.7233424 c 1.518917,-0.05443 4.417667,-0.204481 6.441667,-0.333457 4.405987,-0.280764 6.431703,0.0671 9.589131,1.6467 4.220839,2.1116 7.977433,7.3692976 8.727459,12.2148796 0.861976,5.568838 -1.375774,11.461775 -6.655005,17.525424 -1.57897,1.813583 -1.814516,1.962088 -3.654973,2.304357 -2.870888,0.533898 -3.846613,0.01195 -3.846613,-2.057663 0,-0.585201 0.726493,-1.509441 2.683418,-3.413828 2.963485,-2.883927 3.770067,-4.446214 4.156787,-8.051377 0.329391,-3.070715 -0.2498,-7.806129 -1.178398,-9.634471 C 24.816084,7.7427714 19.17873,4.7644744 15.037838,5.6360094 l -1.28,0.269402 -0.207801,4.4664836 c -0.11429,2.456565 -0.36629,4.871857 -0.56,5.367315 -0.570419,1.45898 -0.420127,3.487626 0.819286,11.058746 l 1.172042,7.159578 -0.753281,0.568201 c -1.91034,1.440973 -4.600287,1.60848 -7.7847079,0.484765 z M 256.99051,35.529687 c -2.00624,-0.339877 -2.08115,-0.809098 -0.75807,-4.748739 0.63957,-1.904414 1.33817,-4.39857 1.55245,-5.54257 0.57555,-3.072816 0.47005,-10.093578 -0.21881,-14.56 -0.32573,-2.1119996 -0.59584,-4.5599996 -0.60025,-5.4399996 -0.008,-1.580175 0.01,-1.60881 1.432,-2.311043 1.97296,-0.974207 6.03303,-1.379106 10.4,-1.037164 1.936,0.151592 4.68698,0.282954 6.11328,0.291915 2.31222,0.01453 2.68705,0.103205 3.4586,0.81825 1.13908,1.055671 2.36665,3.787482 2.7952,6.220429 0.50029,2.8401646 0.13087,4.9969396 -1.2639,7.3791256 -1.15883,1.979209 -1.22598,2.032519 -3.26318,2.590855 -2.29286,0.628406 -6.86845,0.616993 -9.24543,-0.02306 -1.84448,-0.496666 -1.82764,-1.546163 0.0454,-2.832658 1.09346,-0.751027 1.79178,-0.961375 3.56312,-1.073284 1.91733,-0.121133 2.30129,-0.253328 2.96,-1.019121 0.61326,-0.712958 0.75688,-1.242836 0.75688,-2.792367 0,-4.1256256 -2.20553,-6.6918776 -5.75126,-6.6918776 -1.46196,0 -1.76791,0.133543 -3.08286,1.345617 -2.66633,2.457737 -3.39297,5.2888016 -2.20076,8.5743826 0.46834,1.290701 0.48065,1.981616 0.11874,6.663951 -0.46414,6.004797 -0.30159,7.09895 1.4892,10.024282 1.36583,2.231136 1.42469,3.215323 0.22694,3.79475 -0.97016,0.469332 -6.51688,0.708915 -8.52732,0.368326 z m 31.48732,-0.261189 c -0.44,-0.0675 -1.26909,-0.198617 -1.84242,-0.291376 -0.63504,-0.102744 -1.24806,-0.482495 -1.56862,-0.971732 -0.48968,-0.747342 -0.48591,-1.040573 0.0543,-4.225045 0.31926,-1.882082 0.73714,-3.524715 0.92862,-3.650295 0.48323,-0.316936 0.48522,-16.1845726 0.002,-16.5033436 -0.4537,-0.299332 -1.0769,-4.173126 -0.85669,-5.325098 0.12919,-0.675822 0.4979,-1.039578 1.48727,-1.467282 1.28205,-0.554233 1.3887,-0.550391 4.19549,0.151135 2.43641,0.608952 2.86744,0.813245 2.79844,1.326369 -0.23564,1.752701 -0.46403,11.0065476 -0.2716,11.0065476 0.12375,0 0.63274,-0.210853 1.13109,-0.468563 0.68637,-0.354933 1.16753,-0.391904 1.98411,-0.152456 0.59291,0.173859 2.59001,0.299742 4.43801,0.27974 1.848,-0.02 3.63496,0.07282 3.97101,0.206266 0.59119,0.234764 0.60444,0.07224 0.4084,-5.011177 -0.11144,-2.8895946 -0.29519,-5.5778096 -0.40833,-5.9738096 -0.17549,-0.614199 -0.084,-0.72 0.6225,-0.72 0.45553,0 1.91873,-0.239618 3.25155,-0.532485 2.21983,-0.487771 2.51264,-0.489893 3.48696,-0.02527 0.7225,0.344535 1.11797,0.791441 1.23305,1.393397 0.21836,1.14231 -0.40785,5.01499 -0.85906,5.312686 -0.48316,0.318772 -0.48118,16.1864076 0.002,16.5033436 0.19147,0.12558 0.60633,1.750566 0.9219,3.61108 0.8386,4.944234 0.56012,5.262642 -4.91677,5.621564 l -3.1266,0.204898 -0.0747,-1.004607 c -0.0411,-0.552534 -0.0582,-1.508607 -0.0382,-2.124607 0.0739,-2.267433 0.077,-6.483575 0.007,-9.512244 -0.0667,-2.885983 -0.11374,-3.089849 -0.64749,-2.804194 -0.37632,0.201399 -1.44421,0.177382 -3.08447,-0.06937 -2.31726,-0.348595 -5.215,-0.422818 -7.40797,-0.189749 l -0.89909,0.09556 -0.0818,3.04 c -0.19509,7.246959 0.0371,10.531784 0.83003,11.741939 l 0.4836,0.738061 -2.6768,-0.04358 c -1.47225,-0.02397 -3.03681,-0.0988 -3.47681,-0.166302 z m 40.75275,-0.427979 c -0.37799,-0.15251 -0.76745,-0.407039 -0.86546,-0.56562 -0.098,-0.15858 0.13472,-1.860671 0.51718,-3.782424 0.72383,-3.637079 0.88832,-7.213706 0.45142,-9.815278 -0.21237,-1.264631 -0.66462,-1.993204 -2.68154,-4.32 -2.72102,-3.139075 -3.97051,-4.61938 -5.37435,-6.3671396 -0.528,-0.657354 -1.5468,-1.7794 -2.264,-2.493434 -2.11893,-2.109571 -3.0727,-3.572821 -2.58997,-3.973451 0.22515,-0.18686 2.13745,-0.437408 4.24955,-0.556772 3.99123,-0.225563 5.24442,0.01797 5.24442,1.019128 0,0.719454 0.89872,2.358755 2.11985,3.866705 0.59408,0.73362 1.08015,1.48962 1.08015,1.68 0,0.19038 0.12721,0.346145 0.28268,0.346145 0.15547,0 0.36729,0.2519996 0.47071,0.5599996 0.19642,0.58499 0.87456,1.724757 1.18995,2 0.10084,0.088 0.27632,0.412 0.38996,0.72 0.11364,0.308 0.35965,0.56 0.5467,0.56 0.18705,0 0.43306,-0.252 0.5467,-0.56 0.11364,-0.308 0.28912,-0.632 0.38996,-0.72 0.3154,-0.275243 0.99353,-1.41501 1.18995,-2 0.10342,-0.308 0.31524,-0.5599996 0.47071,-0.5599996 0.15548,0 0.28268,-0.155765 0.28268,-0.346145 0,-0.19038 0.48607,-0.94638 1.08015,-1.68 1.22113,-1.50795 2.11985,-3.147251 2.11985,-3.866705 0,-1.001162 1.25319,-1.244691 5.24442,-1.019128 2.1121,0.119364 4.0244,0.369912 4.24955,0.556772 0.48273,0.40063 -0.47104,1.86388 -2.58997,3.973451 -0.7172,0.714034 -1.736,1.842396 -2.264,2.5074696 -0.528,0.665074 -1.70828,2.032894 -2.62284,3.0396 -0.91457,1.006706 -2.28257,2.758344 -3.04,3.892529 l -1.37716,2.062156 0.0327,2.88 c 0.0359,3.159952 0.50253,7.358232 1.11723,10.051318 0.3887,1.702971 0.38092,1.743576 -0.47522,2.48 -0.77327,0.665138 -1.18085,0.746418 -3.65255,0.728398 -1.53019,-0.01116 -3.09142,-0.145065 -3.46941,-0.297575 z M 92.317835,33.478776 c -1.922655,-0.918203 -4.725231,-3.813764 -5.970918,-6.169023 -1.73736,-3.284879 -2.472163,-6.267893 -2.480871,-10.071375 -0.0084,-3.653312 0.306771,-4.937023 2.277557,-9.2776756 1.652512,-3.639652 2.607039,-4.472618 5.534232,-4.82943 0.968,-0.117995 3.344,-0.412167 5.28,-0.653715 1.936,-0.241549 5.680005,-0.436946 8.320005,-0.434217 4.27629,0.0044 4.93965,0.07926 6.08,0.685949 0.704,0.374543 1.52469,0.951569 1.82375,1.282281 0.51345,0.567788 0.50454,0.670859 -0.16,1.849653 -1.00067,1.775042 -3.50347,3.448014 -5.43613,3.633718 -1.24503,0.119631 -1.88714,-0.02393 -3.29656,-0.737033 -1.53648,-0.777384 -2.00374,-0.865265 -3.82378,-0.71917 -2.417276,0.194036 -5.281228,1.492532 -6.339981,2.8745026 -0.378017,0.493418 -1.313662,1.506427 -2.079212,2.25113 -2.16373,2.104811 -2.407306,2.784644 -2.17422,6.068375 0.251643,3.545161 0.875992,4.817022 3.740425,7.61962 2.798557,2.738144 3.209734,4.417995 1.619387,6.615956 -0.636335,0.879456 -1.09064,0.881086 -2.913684,0.01045 z m 81.440005,-24.5110986 -7.04,-3.729299 -0.097,-1.160199 c -0.20006,-2.394282 1.84996,-2.802989 7.05916,-1.407367 1.62678,0.435838 3.64072,0.876502 4.47541,0.979251 2.67158,0.328868 4.81153,3.302547 4.28199,5.950258 -0.25812,1.2905596 -1.0863,3.1629266 -1.38329,3.1273556 -0.14098,-0.01689 -3.42432,-1.708886 -7.29632,-3.7599996 z"
       id="path1" />
  </g>
</svg>
