<?xml version="1.0" encoding="UTF-8" standalone="no"?>
<!-- Created with Inkscape (http://www.inkscape.org/) -->

<svg
   version="1.1"
   id="svg1"
   width="166.08"
   height="36.16"
   viewBox="0 0 166.08 36.16"
   xmlns="http://www.w3.org/2000/svg"
   xmlns:svg="http://www.w3.org/2000/svg">
  <defs
     id="defs1" />
  <g
     id="g1">
    <path
       style="fill:#ffffff"
       d="M 94.61896,35.527881 C 94.026739,35.128782 92.801843,33.884742 91.896969,32.763346 90.992096,31.64195 89.700209,30.391578 89.026108,29.984741 87.57323,29.107893 87.256525,28.586367 86.1287,25.213514 c -1.516814,-4.536156 -2.857107,-6.705898 -4.323534,-6.999183 -1.46416,-0.292832 -1.263619,-1.536866 0.435916,-2.704167 1.09346,-0.751027 1.791778,-0.961375 3.563113,-1.073284 1.917338,-0.121133 2.301292,-0.253328 2.96,-1.019121 0.613261,-0.712958 0.756887,-1.242836 0.756887,-2.792367 0,-4.125626 -2.205537,-6.691878 -5.751259,-6.691878 -1.461966,0 -1.767917,0.133542 -3.082862,1.345616 -2.66633,2.457737 -3.392973,5.288803 -2.200765,8.574384 0.468344,1.290701 0.480655,1.981616 0.118739,6.663951 -0.464135,6.004797 -0.301588,7.09895 1.489205,10.024282 2.004825,3.27496 1.355,4.11166 -3.373058,4.343075 -3.404605,0.166639 -6.057319,-0.211843 -6.509368,-0.928738 -0.25792,-0.40903 -0.06106,-1.364693 0.823972,-4 0.639571,-1.904414 1.338175,-4.39857 1.552452,-5.54257 0.575555,-3.072816 0.470046,-10.093578 -0.21881,-14.56 -0.325733,-2.112 -0.595843,-4.56 -0.600244,-5.44 -0.0079,-1.580175 0.0098,-1.608811 1.431998,-2.311043 1.972958,-0.974207 6.033024,-1.379107 10.4,-1.037165 1.936,0.151593 4.686973,0.282954 6.113273,0.291915 2.312223,0.01453 2.687053,0.103206 3.4586,0.818251 1.864095,1.727589 3.309925,6.485862 2.938885,9.672031 -0.11704,1.005075 -0.70124,2.667381 -1.461976,4.16 -3.03332,5.951559 -2.340441,10.061872 2.540396,15.070191 2.41978,2.482984 2.82058,3.601004 1.66562,4.646224 -0.85518,0.773929 -2.94078,0.677431 -4.23692,-0.196037 z m -35.817878,0.06135 c -2.024,-0.138416 -6.182831,-0.401355 -9.241847,-0.584307 -7.840683,-0.468933 -7.888483,-0.516133 -6.70877,-6.624517 0.632975,-3.277452 0.734934,-4.808228 0.733121,-11.006893 -0.0016,-5.313448 -0.138522,-7.913358 -0.522741,-9.92252 -0.605683,-3.167249 -0.470905,-4.324381 0.584212,-5.01572 1.578162,-1.034052 17.435636,-2.389588 19.956025,-1.705891 1.812777,0.491746 3.485311,2.202362 4.241582,4.338158 1.074542,3.034626 0.493541,4.305973 -1.967817,4.305973 -1.600303,0 -2.27475,-0.319524 -4.160669,-1.971144 -1.387373,-1.215011 -4.63174,-2.508856 -6.291053,-2.508856 -1.683402,0 -4.120666,0.749531 -4.868274,1.497139 l -0.781685,0.781685 0.07837,8.540588 c 0.0431,4.697324 -0.03422,9.650412 -0.171838,11.006864 -0.207944,2.049666 -0.160639,2.60298 0.280042,3.275543 2.163346,3.301684 7.726014,2.845246 13.21344,-1.084213 2.054658,-1.471309 3.775383,-1.732224 4.698303,-0.712409 0.738071,0.81556 0.719487,4.312693 -0.0309,5.814803 -0.938271,1.87821 -1.974673,2.05887 -9.039502,1.575719 z M 2.4532468,34.921505 C 1.8847419,33.859244 2.2563396,31.021106 3.13107,29.74452 c 1.5573514,-2.272805 3.6138152,-2.701082 6.2623502,-1.304189 2.7619788,1.456726 4.2876608,3.312183 4.2876608,5.214435 0,1.703362 -0.408417,1.834968 -5.8755348,1.893295 -4.7856423,0.05106 -5.0032877,0.02558 -5.3522994,-0.626556 z M 114.64699,35.093713 c -0.33622,-0.33622 -0.48556,-0.929556 -0.42285,-1.68 l 0.0969,-1.160199 7.15962,-3.754401 c 3.93779,-2.064921 7.27478,-3.683227 7.41553,-3.596236 0.58191,0.35964 1.32466,3.411499 1.10946,4.558619 -0.53526,2.853153 -1.92019,4.070782 -5.16842,4.544049 -1.2079,0.175991 -3.13219,0.60868 -4.27619,0.961532 -2.57444,0.794052 -5.19065,0.850072 -5.91409,0.126636 z m -85.605909,-0.0062 c -0.264,-0.0855 -1.088641,-0.372757 -1.832536,-0.638353 l -1.352536,-0.4829 1.236513,-1.656384 c 3.816336,-5.112214 4.455396,-9.642577 2.761473,-19.576384 -1.085081,-6.363325 -1.025686,-8.733049 0.250852,-10.00843 0.770235,-0.769537 1.105555,-0.868667 2.864298,-0.846769 1.095565,0.01364 2.610338,0.200915 3.366162,0.416165 2.117715,0.6031 2.222707,1.120529 1.321834,6.514341 -0.59693,3.574007 -0.763877,5.780074 -0.769227,10.164693 -0.0074,6.026767 0.374874,8.0494 2.259323,11.955675 0.976464,2.024113 0.995721,3.212626 0.06264,3.86618 -0.566418,0.396735 -1.625012,0.493002 -5.2,0.472882 -2.468837,-0.01389 -4.704796,-0.09522 -4.968796,-0.180716 z M 135.60108,34.763634 c -0.44,-0.0675 -1.26909,-0.198617 -1.84242,-0.291376 -0.63505,-0.102744 -1.24806,-0.482495 -1.56862,-0.971732 -0.48968,-0.747342 -0.48591,-1.040573 0.0543,-4.225045 0.31926,-1.882082 0.73714,-3.524715 0.92861,-3.650295 0.48324,-0.316936 0.48523,-16.184573 0.002,-16.503344 -0.4537,-0.299333 -1.0769,-4.173126 -0.85669,-5.325098 0.12919,-0.675823 0.4979,-1.039578 1.48727,-1.467282 1.28205,-0.554233 1.3887,-0.550392 4.19549,0.151134 2.43641,0.608952 2.86744,0.813246 2.79844,1.32637 -0.23564,1.7527 -0.46402,11.006548 -0.27159,11.006548 0.12375,0 0.63274,-0.210853 1.13109,-0.468563 0.68637,-0.354933 1.16753,-0.391904 1.98411,-0.152456 0.59291,0.173859 2.59001,0.299742 4.43801,0.27974 1.848,-0.02 3.63496,0.07282 3.97101,0.206266 0.59119,0.234764 0.60444,0.07224 0.4084,-5.011177 -0.11144,-2.889596 -0.29519,-5.57781 -0.40833,-5.97381 -0.17549,-0.6142 -0.084,-0.72 0.6225,-0.72 0.45553,0 1.91873,-0.239618 3.25155,-0.532485 2.21983,-0.487771 2.51264,-0.489893 3.48696,-0.02527 0.7225,0.344535 1.11797,0.791441 1.23305,1.393396 0.21836,1.14231 -0.40785,5.014991 -0.85906,5.312687 -0.48316,0.318771 -0.48118,16.186408 0.002,16.503344 0.19147,0.12558 0.60633,1.750566 0.9219,3.61108 0.8386,4.944234 0.56012,5.262642 -4.91677,5.621564 l -3.1266,0.204898 -0.0747,-1.004607 c -0.0411,-0.552534 -0.0582,-1.508607 -0.0382,-2.124607 0.0739,-2.267433 0.077,-6.483575 0.007,-9.512244 -0.0667,-2.885983 -0.11374,-3.089849 -0.64749,-2.804194 -0.37632,0.201399 -1.44421,0.177382 -3.08447,-0.06937 -2.31726,-0.348595 -5.215,-0.422818 -7.40797,-0.189749 l -0.89909,0.09556 -0.0818,3.04 c -0.19509,7.246959 0.0371,10.531784 0.83003,11.741939 l 0.4836,0.738061 -2.67681,-0.04358 c -1.47224,-0.02397 -3.0368,-0.0988 -3.4768,-0.166302 z m -27.84,-1.789722 c -1.92265,-0.918203 -4.72523,-3.813764 -5.97092,-6.169023 -1.73736,-3.284879 -2.47216,-6.267893 -2.48087,-10.071375 -0.008,-3.653312 0.30677,-4.937023 2.27756,-9.277676 1.65251,-3.639653 2.60704,-4.472618 5.53423,-4.82943 0.968,-0.117995 3.344,-0.412167 5.28,-0.653716 1.936,-0.241548 5.68,-0.436945 8.32,-0.434216 4.2763,0.0044 4.93966,0.07926 6.08,0.685949 0.704,0.374542 1.52469,0.951569 1.82375,1.282281 0.51346,0.567788 0.50454,0.670858 -0.16,1.849653 -1.00066,1.775041 -3.50347,3.448014 -5.43612,3.633718 -1.24503,0.119631 -1.88715,-0.02393 -3.29657,-0.737033 -1.53647,-0.777384 -2.00373,-0.865265 -3.82377,-0.71917 -2.41728,0.194036 -5.28123,1.492531 -6.33999,2.874503 -0.37801,0.493418 -1.31366,1.506427 -2.07921,2.25113 -2.16373,2.104811 -2.4073,2.784644 -2.17422,6.068375 0.25165,3.545161 0.87599,4.817022 3.74043,7.61962 2.79856,2.738144 3.20973,4.417995 1.61939,6.615956 -0.63634,0.879456 -1.09065,0.881086 -2.91369,0.01045 z M 19.372235,26.271368 C 19.07037,26.041548 18.006478,24.485514 17.008032,22.813514 16.009586,21.141514 12.978271,16.413923 10.271776,12.307756 7.5652822,8.201589 5.1371732,4.42874 4.8759791,3.923647 4.2575857,2.727806 4.2746723,1.696392 4.9283361,0.763156 5.4250502,0.053997 5.5872402,0.022616 7.7283362,0.221399 13.261456,0.735104 15.569535,2.35718 16.880696,6.653514 c 0.633369,2.075387 3.019016,6.634321 5.450243,10.415331 2.202126,3.424714 2.260274,3.56742 2.051469,5.034644 -0.266127,1.87002 -0.912898,3.318399 -1.701839,3.811101 -1.011666,0.631796 -2.706963,0.81462 -3.308334,0.356778 z M 57.87996,21.626343 c -1.282855,-0.631979 -2.109283,-1.872578 -2.79497,-4.195691 -0.848134,-2.873485 0.305899,-4.537138 3.147294,-4.537138 1.945474,0 2.692603,0.699724 2.965064,2.776934 0.11132,0.848686 0.3377,1.873842 0.503067,2.278123 0.575159,1.406122 0.19589,3.32359 -0.787239,3.980043 -0.585692,0.391077 -1.88954,0.261144 -3.033216,-0.302271 z"
       id="path1" />
  </g>
</svg>
