<?xml version="1.0" encoding="UTF-8" standalone="no"?>
<!-- Created with Inkscape (http://www.inkscape.org/) -->

<svg
   version="1.1"
   id="svg1"
   width="310.07999"
   height="36.16"
   viewBox="0 0 310.07999 36.16"
   xmlns="http://www.w3.org/2000/svg"
   xmlns:svg="http://www.w3.org/2000/svg">
  <defs
     id="defs1" />
  <g
     id="g1">
    <path
       style="fill:#ffffff"
       d="m 12.232973,35.979164 c -1.369937,-0.424838 -4.4623768,-2.916696 -4.575158,-3.686618 -0.2944643,-2.010215 3.094306,-3.044807 5.669674,-1.730952 1.292087,0.659174 1.628078,0.685173 6.102343,0.472198 4.422457,-0.210508 4.829252,-0.284068 6.163501,-1.114525 1.062831,-0.661523 1.481154,-1.152248 1.634086,-1.916907 0.32599,-1.629951 0.242333,-2.828422 -0.266056,-3.811538 -0.659693,-1.275707 -3.016385,-3.216227 -3.905991,-3.216227 -0.40832,0 -0.7424,-0.115072 -0.7424,-0.255716 0,-0.568768 -2.295592,-1.024284 -5.161925,-1.024284 -2.813175,0 -3.200638,-0.08087 -5.268546,-1.099611 C 9.7933187,17.565761 9.5641063,17.344479 8.3017068,15.13809 7.0073666,12.875875 6.9529727,12.671099 6.9529727,10.060531 c 0,-3.556334 0.8972203,-5.506574 3.3756683,-7.337511 l 1.70099,-1.256596 5.889168,-0.386636 5.889168,-0.38663701 2.311851,1.71910801 c 2.259877,1.68046 2.295229,1.728332 1.572502,2.129383 -1.002062,0.556057 -2.597778,0.534119 -4.007986,-0.0551 -2.253503,-0.941574 -8.137509,0.04774 -9.878096,1.660858 -0.416092,0.385621 -1.20405,0.963494 -1.751018,1.284163 -0.920064,0.539403 -0.979558,0.678823 -0.795001,1.863035 0.109718,0.704 0.495377,1.856 0.857021,2.56 1.554064,3.025244 2.923911,3.663312 7.885375,3.672972 3.154406,0.0061 3.858075,0.111592 5.579511,0.836134 4.281436,1.802032 8.27802,5.836401 8.771691,8.854623 0.495122,3.027089 -0.718485,6.144679 -3.458677,8.884872 -1.277524,1.277524 -2.318546,1.47986 -9.702168,1.885744 -7.267248,0.399487 -7.641602,0.399079 -8.959999,-0.0098 z m 78.857874,-0.370202 c -0.592221,-0.399099 -1.817117,-1.643139 -2.72199,-2.764535 -0.904874,-1.121396 -2.196761,-2.371768 -2.870861,-2.778605 -1.452878,-0.876848 -1.769584,-1.398374 -2.897409,-4.771227 -1.516814,-4.536156 -2.857106,-6.705898 -4.323534,-6.999183 -1.464159,-0.292832 -1.263618,-1.536866 0.435917,-2.704167 1.093459,-0.751027 1.791778,-0.961375 3.563113,-1.073284 1.917337,-0.121133 2.301292,-0.253328 2.96,-1.019121 0.61326,-0.712958 0.756886,-1.242836 0.756886,-2.792367 0,-4.125626 -2.205536,-6.691878 -5.751258,-6.691878 -1.461966,0 -1.767918,0.133542 -3.082863,1.345616 -2.666329,2.457737 -3.392972,5.288803 -2.200764,8.574384 0.468344,1.290701 0.480655,1.981616 0.118739,6.663951 -0.464135,6.004797 -0.301588,7.09895 1.489205,10.024282 2.004825,3.27496 1.355,4.11166 -3.373058,4.343075 -3.404605,0.166639 -6.057318,-0.211843 -6.509368,-0.928738 -0.25792,-0.40903 -0.06106,-1.364693 0.823972,-4 0.639572,-1.904414 1.338175,-4.39857 1.552452,-5.54257 0.575555,-3.072816 0.470046,-10.093578 -0.218809,-14.56 -0.325734,-2.112 -0.595844,-4.56 -0.600245,-5.44 -0.0079,-1.580175 0.0098,-1.608811 1.431998,-2.311043 1.972958,-0.974207 6.033024,-1.37910701 10.4,-1.037165 1.935999,0.151593 4.686972,0.282954 6.113272,0.291915 2.312223,0.01453 2.687054,0.103206 3.4586,0.818251 1.8641,1.727589 3.309921,6.485862 2.938887,9.672031 -0.117042,1.005075 -0.701238,2.667381 -1.461978,4.16 -3.03332,5.951559 -2.340441,10.061872 2.540395,15.070191 2.419782,2.482984 2.820581,3.601004 1.665626,4.646224 -0.855182,0.773929 -2.940785,0.677431 -4.236925,-0.196037 z m -48.267028,9.15e-4 c -1.298766,-0.667461 -1.93423,-1.880005 -2.471163,-4.715282 -0.692638,-3.657478 -0.451055,-7.386944 0.684043,-10.56 0.731096,-2.043708 0.87954,-3.058707 0.999922,-6.837078 C 42.154131,9.809269 42.091941,8.929105 41.668093,8.28224 40.997666,7.259038 39.323292,6.257289 38.280984,6.255791 37.428458,6.254591 35.561834,7.443073 33.43205,9.343181 30.389166,12.057919 28.468486,9.072162 30.751595,5.17633 31.999516,3.046915 33.162778,2.623293 38.312971,2.422726 42.220224,2.270563 42.729805,2.181825 43.646472,1.493955 l 1.0135,-0.76053401 10.396367,0.136397 C 66.456307,1.019382 66.47297,1.022374 66.47297,2.920135 c 0,0.856908 -0.23371,1.243251 -1.186153,1.960817 -0.652384,0.491504 -1.757931,1.442248 -2.456771,2.112767 -1.636299,1.569985 -2.133668,1.820876 -3.609728,1.820876 -0.837655,0 -1.799097,-0.360695 -3.097264,-1.161969 -3.003608,-1.853933 -5.274199,-1.464359 -6.591045,1.13085 -0.758116,1.494079 -1.421129,7.140724 -1.412658,12.031119 0.0076,4.400076 0.588536,7.286247 2.04239,10.147243 0.523176,1.029544 0.95123,2.152272 0.95123,2.494951 0,0.836862 -1.238796,1.59675 -3.452317,2.117681 -2.276763,0.535814 -3.84085,0.547264 -4.836835,0.03541 z m 72.289161,0.06044 c -2.024,-0.138418 -6.18284,-0.401357 -9.24185,-0.584309 -7.840691,-0.468933 -7.888491,-0.516133 -6.708777,-6.624517 0.632975,-3.277452 0.734933,-4.808228 0.733121,-11.006893 C 99.893874,12.14115 99.756951,9.54124 99.372732,7.532078 98.767049,4.364829 98.901827,3.207697 99.956944,2.516358 101.5351,1.482306 117.39259,0.12676999 119.91297,0.81046699 c 1.81278,0.49174601 3.48532,2.20236201 4.24159,4.33815801 1.07454,3.034626 0.49354,4.305973 -1.96782,4.305973 -1.6003,0 -2.27475,-0.319524 -4.16067,-1.971144 -1.38737,-1.215011 -4.63174,-2.508856 -6.29105,-2.508856 -1.6834,0 -4.12067,0.749531 -4.86827,1.497139 l -0.78169,0.781685 0.0784,8.540588 c 0.0431,4.697324 -0.0342,9.650412 -0.17183,11.006864 -0.20795,2.049666 -0.16064,2.60298 0.28004,3.275543 2.16334,3.301684 7.72601,2.845246 13.21344,-1.084213 2.05465,-1.471309 3.77538,-1.732224 4.6983,-0.712409 0.73807,0.81556 0.71949,4.312693 -0.0309,5.814803 -0.93827,1.87821 -1.97468,2.05887 -9.0395,1.575719 z m 33.13461,-0.708507 c -0.58287,-0.889561 -0.26494,-2.308979 1.14189,-5.098087 1.07938,-2.139934 1.16307,-3.532292 0.2976,-4.951695 -0.92366,-1.514853 -2.41712,-1.86334 -5.96648,-1.392239 -6.02897,0.800212 -7.91231,2.773713 -7.71545,8.084794 0.0567,1.530863 -0.0513,1.949311 -0.66094,2.56 -0.61778,0.618838 -1.12949,0.746197 -3.36,0.836273 -2.95919,0.119503 -4.12374,-0.20053 -4.8691,-1.33809 -0.70029,-1.06878 -0.39549,-2.011986 1.31755,-4.077104 1.6616,-2.00311 3.52762,-5.725789 4.7453,-9.466786 0.84286,-2.589476 1.84377,-4.207606 5.6068,-9.064278 1.99013,-2.568513 2.88821,-4.853597 2.88821,-7.348779 0,-1.655005 0.10279,-1.965622 0.84316,-2.547996 1.07841,-0.84827801 3.32866,-0.90606601 4.01959,-0.103225 0.26506,0.308 0.8669,1.816364 1.33741,3.351921 0.47052,1.535557 2.52586,6.143558 4.56743,10.240001 2.04156,4.096443 4.19929,8.600078 4.79495,10.008078 0.89592,2.11776 1.44185,2.893709 3.16023,4.491749 2.30246,2.1412 2.50792,2.797912 1.42903,4.567507 -1.03639,1.699888 -2.16707,1.980744 -7.97414,1.980744 -4.98601,0 -5.13573,-0.01958 -5.60304,-0.732788 z m -2.88007,-17.332667 c 0.93899,-0.938995 0.96719,-1.503292 0.16357,-3.273324 -0.64529,-1.421292 -1.96197,-2.341221 -3.35097,-2.341221 -0.95072,0 -1.40228,0.713492 -1.66266,2.627097 -0.15189,1.11628 -0.0531,1.542376 0.52855,2.279564 1.29257,1.638235 3.09578,1.93361 4.32151,0.707884 z m 20.27762,17.373446 c -0.56851,-1.062261 -0.19691,-3.900399 0.67782,-5.176985 1.55735,-2.272805 3.61382,-2.701082 6.26235,-1.304189 2.76198,1.456726 4.28766,3.312183 4.28766,5.214435 0,1.703362 -0.40841,1.834968 -5.87553,1.893295 -4.78564,0.05106 -5.00329,0.02558 -5.3523,-0.626556 z m 49.14783,0.409081 c -2.23821,-0.98458 -2.50289,-3.192018 -1.27177,-10.606956 1.23613,-7.445177 1.20508,-11.018841 -0.13044,-15.012036 -0.55587,-1.662056 -1.23703,-3.272039 -1.51368,-3.57774 -0.27666,-0.305701 -0.57062,-1.204622 -0.65325,-1.997602 -0.14984,-1.43792 -0.14697,-1.442689 1.06945,-1.780476 0.67083,-0.186281 3.16765,-0.339496 5.54849,-0.340478 3.40215,-0.0014 4.48104,0.104851 5.04,0.496361 0.93308,0.653554 0.91382,1.842067 -0.0626,3.86618 -1.88445,3.906274 -2.26668,5.928908 -2.25933,11.955675 0.005,4.384619 0.1723,6.590686 0.76923,10.164692 0.88548,5.301655 0.77579,5.912444 -1.16037,6.460982 -1.76266,0.499382 -4.63381,0.697746 -5.37569,0.371398 z m -22.56,-0.243051 c -0.264,-0.0855 -1.08864,-0.372757 -1.83253,-0.638353 l -1.35254,-0.4829 1.23651,-1.656384 c 3.81634,-5.112214 4.4554,-9.642577 2.76148,-19.576384 -1.08509,-6.363325 -1.02569,-8.733049 0.25085,-10.00843 0.77023,-0.769537 1.10555,-0.868667 2.86429,-0.846769 1.09557,0.01364 2.61034,0.200915 3.36617,0.416165 2.11771,0.6031 2.2227,1.120529 1.32183,6.514341 -0.59693,3.574007 -0.76388,5.780074 -0.76923,10.164693 -0.007,6.026767 0.37488,8.0494 2.25933,11.955675 0.97646,2.024113 0.99572,3.212626 0.0626,3.86618 -0.56642,0.396735 -1.62501,0.493002 -5.2,0.472882 -2.46884,-0.01389 -4.7048,-0.09522 -4.9688,-0.180716 z m 39.81207,-0.09571 c -2.00253,-0.478732 -2.08195,-0.798226 -1.07849,-4.338309 0.5174,-1.825329 0.67216,-3.661731 0.83604,-9.92 0.23631,-9.024779 -0.16344,-14.063132 -1.18466,-14.931294 -0.73224,-0.622495 -0.82115,-2.118078 -0.17819,-2.997382 0.36306,-0.496514 1.03235,-0.653817 3.57199,-0.839524 3.04159,-0.22241 3.17543,-0.20318 5.00152,0.718629 2.74604,1.386198 6.22226,4.873006 9.28332,9.311613 2.04623,2.967071 6.31088,8.632839 7.13857,9.483884 0.0567,0.05826 0.41554,-0.06133 0.79751,-0.265757 1.26404,-0.676493 1.60032,-2.177843 1.60032,-7.144796 0,-4.478512 -0.0263,-4.657036 -0.95595,-6.490279 -1.25188,-2.468677 -1.24697,-3.632942 0.0207,-4.900588 0.5416,-0.541598 1.34641,-1.075499 1.78846,-1.186447 1.22288,-0.306924 4.14029,0.08721 5.47545,0.739711 1.02302,0.499959 1.20552,0.753737 1.29151,1.795984 0.0568,0.68861 -0.20724,2.073126 -0.6103,3.2 -0.65512,1.831606 -0.72793,2.783483 -0.93518,12.226246 l -0.22474,10.24 -0.89937,2.08 c -1.98078,4.581006 -3.22704,4.690382 -6.34927,0.557236 -0.96276,-1.27448 -3.48595,-4.010178 -5.60709,-6.07933 -4.53154,-4.420467 -5.9366,-6.199312 -7.67097,-9.711597 -1.2953,-2.623078 -2.80212,-4.286311 -3.88325,-4.286311 -0.7555,0 -2.45106,1.421112 -3.02899,2.538711 -0.35053,0.677847 -0.38172,1.371838 -0.14572,3.241883 0.19969,1.582322 0.18457,3.228218 -0.0451,4.913228 -0.54017,3.962485 0.11577,7.736471 1.52277,8.761401 0.80037,0.583026 0.82551,0.678717 0.4295,1.63477 -0.23135,0.558523 -0.72083,1.225761 -1.08773,1.482751 -0.704,0.493102 -3.15429,0.576359 -4.87263,0.165565 z m 52.98793,-0.356327 c -1.144,-0.159306 -3.05467,-0.436423 -4.24594,-0.615815 -1.19127,-0.179394 -2.60242,-0.326169 -3.13589,-0.326169 -1.15898,0 -2.43921,-0.62183 -3.40098,-1.65192 -0.76931,-0.823958 -2.53569,-4.535137 -3.47836,-7.30808 -0.88835,-2.613177 -0.81791,-7.713335 0.15018,-10.871929 1.71528,-5.596502 4.85154,-9.511207 8.73293,-10.900514 1.11461,-0.398967 1.21852,-0.378763 1.82423,0.354689 1.69123,2.04793 1.24729,3.945027 -1.56771,6.699257 -2.84817,2.786689 -3.47322,4.062786 -3.72459,7.604128 -0.23309,3.283732 0.0105,3.963565 2.17422,6.068375 0.76555,0.744704 1.70119,1.757713 2.07921,2.251131 1.05508,1.377173 3.92321,2.680507 6.32259,2.873106 2.38717,0.191619 4.40971,-0.576097 5.76687,-2.18899 0.67501,-0.802196 0.76594,-1.164079 0.61692,-2.455069 -0.12844,-1.112708 0.0126,-2.011317 0.53184,-3.389143 l 0.70662,-1.874959 3.26713,0.12094 c 4.08407,0.151181 4.98073,0.606041 4.98073,2.526633 0,0.705595 -0.216,1.799862 -0.48,2.431703 -0.2974,0.711778 -0.48,2.171388 -0.48,3.836871 v 2.68807 l -1.34562,1.459822 c -2.30084,2.496113 -3.22072,2.805847 -8.57438,2.887093 -2.552,0.03873 -5.576,-0.05993 -6.72,-0.219232 z m -102.46884,-8.36413 c -0.30187,-0.22982 -1.36576,-1.785854 -2.36421,-3.457854 -0.99844,-1.672 -4.02976,-6.399591 -6.73625,-10.505758 -2.7065,-4.106167 -5.13461,-7.879016 -5.3958,-8.384109 -0.61839,-1.195841 -0.60131,-2.227255 0.0524,-3.16049101 0.49671,-0.709158 0.6589,-0.74054 2.8,-0.541757 5.53312,0.513705 7.8412,2.13578101 9.15236,6.43211501 0.63337,2.075387 3.01901,6.634321 5.45024,10.415331 2.20213,3.424714 2.26027,3.56742 2.05147,5.034644 -0.26613,1.87002 -0.9129,3.318399 -1.70184,3.811101 -1.01167,0.631796 -2.70696,0.81462 -3.30833,0.356778 z m -68.37228,-4.645028 c -1.28285,-0.631979 -2.10928,-1.872578 -2.79497,-4.195691 -0.84813,-2.873485 0.3059,-4.537138 3.1473,-4.537138 1.94547,0 2.6926,0.699724 2.96506,2.776934 0.11132,0.848686 0.3377,1.873842 0.50307,2.278123 0.57516,1.406122 0.19589,3.32359 -0.78724,3.980043 -0.58569,0.391077 -1.88954,0.261144 -3.03322,-0.302271 z m 178.04112,-13.803531 -7.04,-3.729298 -0.0969,-1.160199 c -0.20006,-2.39428201 1.84996,-2.80298901 7.05916,-1.407368 1.62678,0.435839 3.64072,0.876502 4.47542,0.979252 2.67157,0.328867 4.81152,3.302547 4.28198,5.950258 -0.25811,1.290559 -1.08629,3.162927 -1.38328,3.127356 -0.14099,-0.01689 -3.42433,-1.708886 -7.29633,-3.760001 z"
       id="path1" />
  </g>
</svg>
