<?xml version="1.0" encoding="UTF-8" standalone="no"?>
<!-- Created with Inkscape (http://www.inkscape.org/) -->

<svg
   version="1.1"
   id="svg1"
   width="153.92"
   height="36.16"
   viewBox="0 0 153.92 36.16"
   xmlns="http://www.w3.org/2000/svg"
   xmlns:svg="http://www.w3.org/2000/svg">
  <defs
     id="defs1" />
  <g
     id="g1">
    <path
       style="fill:#ffffff"
       d="m 128.4211,35.907011 c -3.27353,-0.879676 -5.60329,-2.735604 -7.08847,-5.646797 -1.20566,-2.363298 -1.2856,-2.844534 -2.08648,-12.560214 -0.39188,-4.75404 2.91664,-11.3529456 7.07703,-14.1152902 2.50432,-1.6627763 4.45246,-2.2747291 9.13427,-2.86927417 4.24323,-0.53884988 4.25038,-0.53865712 4.76275,0.12851104 0.28222,0.36749373 1.57065,1.09622253 2.86316,1.61939743 4.16794,1.6870694 6.17641,3.5403421 7.60742,7.019565 1.66862,4.0569459 0.65705,10.4871589 -2.75854,17.5350509 -2.60678,5.378958 -5.53149,7.952673 -10.14918,8.931162 -2.75968,0.584778 -7.10181,0.565247 -9.36196,-0.04211 z m 8.32238,-6.717512 c 4.1208,-1.291608 7.66986,-7.318953 7.66986,-13.025688 0,-2.841444 -0.57967,-4.653751 -2.07039,-6.4729782 -2.02747,-2.4742617 -4.19098,-2.9205347 -8.44441,-1.7418501 -3.07576,0.8523375 -5.15775,1.93358 -6.36013,3.3030193 -1.55298,1.768743 -1.79783,2.973958 -1.59873,7.869331 0.24168,5.942315 1.20288,8.615168 3.53889,9.840702 1.99776,1.048086 4.40618,1.123493 7.26491,0.227464 z M 44.413334,35.817072 C 42.175119,34.832492 41.910447,32.625054 43.14156,25.210116 44.377693,17.764939 44.346643,14.191275 43.011127,10.198081 42.455256,8.5360244 41.774098,6.9260414 41.497442,6.6203402 41.220786,6.314639 40.926823,5.4157181 40.844191,4.6227382 c -0.149837,-1.43792 -0.146973,-1.4426888 1.069451,-1.7804753 0.67083,-0.1862815 3.167651,-0.3394968 5.548489,-0.3404783 3.40215,-0.0014 4.481043,0.1048513 5.04,0.4963607 C 53.43521,3.651699 53.415953,4.840212 52.439491,6.8643251 50.55504,10.770599 50.172813,12.793233 50.180166,18.82 c 0.0053,4.384619 0.172297,6.590686 0.769227,10.164692 0.885481,5.301655 0.775786,5.912444 -1.160372,6.460982 -1.762654,0.499382 -4.633811,0.697746 -5.375687,0.371398 z m 60.320006,-0.06135 c -2.024,-0.138421 -6.182843,-0.40136 -9.241853,-0.584312 -7.840684,-0.468933 -7.888483,-0.516133 -6.70877,-6.624517 C 89.415692,25.269441 89.51765,23.738665 89.515838,17.54 89.514284,12.226552 89.377315,9.6266424 88.993097,7.6174807 88.387413,4.4502315 88.522191,3.2930992 89.577308,2.6017602 91.15547,1.5677087 107.01295,0.21217251 109.53334,0.89586967 111.34612,1.3876155 113.01865,3.098231 113.77492,5.234027 114.84946,8.2686538 114.26846,9.54 111.8071,9.54 110.2068,9.54 109.53235,9.2204762 107.64643,7.5688566 106.25906,6.3538459 103.01469,5.06 101.35538,5.06 c -1.683403,0 -4.120673,0.7495312 -4.868277,1.4971394 l -0.781686,0.7816855 0.07837,8.5405871 c 0.04311,4.697324 -0.03422,9.650412 -0.171837,11.006864 -0.207945,2.049666 -0.160639,2.60298 0.280041,3.275543 2.163346,3.301684 7.726009,2.845246 13.213439,-1.084213 2.05466,-1.471309 3.77538,-1.732224 4.6983,-0.712409 0.73807,0.81556 0.71949,4.312693 -0.0309,5.814803 -0.93827,1.87821 -1.97467,2.05887 -9.0395,1.575719 z m -85.020547,-0.36177 c -0.177135,-0.227674 -0.707497,-1.670317 -1.178581,-3.205874 -0.471084,-1.535557 -2.526891,-6.143557 -4.56846,-10.24 C 11.924182,17.851635 9.7664537,13.348 9.1707987,11.94 8.2748787,9.8222397 7.7289487,9.0462906 6.0105614,7.4482513 3.7081081,5.3070512 3.502644,4.6503387 4.5815364,2.8807438 5.583783,1.2368628 6.8070503,0.89999997 11.774314,0.89999997 c 3.457634,0 4.502119,0.10521713 5.130278,0.51680323 1.088372,0.7131286 1.037684,2.055517 -0.128084,3.392062 -0.504254,0.5781241 -1.017857,1.374816 -1.141339,1.7704264 -0.28552,0.914744 0.655011,4.9108724 1.607122,6.8283364 0.40081,0.807195 1.040535,2.43272 1.421611,3.612278 0.381076,1.179558 1.177712,3.140903 1.770303,4.358546 1.161871,2.387387 2.331374,3.324318 3.920376,3.140753 0.711768,-0.08223 0.931729,-0.345677 1.285113,-1.539205 0.234498,-0.792 0.693832,-2.09455 1.020742,-2.894555 0.32691,-0.800006 0.880935,-2.456006 1.231167,-3.68 0.350233,-1.223995 1.148661,-3.688571 1.774286,-5.476835 1.068316,-3.0536389 1.116132,-3.3577861 0.786184,-5.0007193 -0.642025,-3.1968811 0.546334,-4.3752246 4.420429,-4.3831733 2.692803,-0.00553 3.716835,0.3159384 4.418697,1.3871148 0.696792,1.0634394 0.397488,2.0057944 -1.290734,4.0638556 -1.838093,2.2407648 -3.033778,4.5338542 -4.413544,8.4643122 -0.617839,1.76 -2.071022,5.113614 -3.229296,7.452476 -1.158273,2.338862 -2.544111,5.362862 -3.07964,6.72 C 26.742457,30.989614 25.767175,32.892 25.110693,33.86 l -1.193605,1.76 -1.941115,0.09395 c -1.305206,0.06317 -2.046625,-0.04166 -2.26318,-0.32 z m 38.826079,-1.04183 C 57.331918,33.926214 56.274893,33.508226 56.189928,33.423261 56.044126,33.277459 56.50034,31.380058 58.003246,25.881641 58.77588,23.054942 58.827849,20.995094 58.173333,19.14 57.842749,18.203023 57.690225,16.472224 57.683346,13.579767 57.674086,9.6855193 57.616008,9.2868842 56.884986,8.1 55.693013,6.1647179 55.867604,4.663602 57.493322,2.8695955 c 1.169085,-1.2901052 2.36912,-1.7003894 5.278345,-1.8046315 1.518916,-0.054425 4.417666,-0.20448083 6.441666,-0.3334568 4.405988,-0.28076409 6.431704,0.0671034 9.589132,1.6467001 4.220839,2.1115996 7.977433,7.3692978 8.727459,12.2148797 0.861976,5.568838 -1.375774,11.461775 -6.655005,17.525424 -1.57897,1.813583 -1.814517,1.962088 -3.654974,2.304357 -2.870887,0.533898 -3.846612,0.01195 -3.846612,-2.057663 0,-0.585201 0.726493,-1.509441 2.683417,-3.413828 C 79.020236,26.06745 79.826818,24.505163 80.213538,20.9 80.542929,17.829285 79.963737,13.093871 79.035139,11.265529 76.911579,7.0843926 71.274226,4.1060965 67.133333,4.9776314 l -1.28,0.2694019 -0.2078,4.4664833 c -0.114291,2.4565654 -0.366291,4.8718574 -0.56,5.3673154 -0.57042,1.45898 -0.420128,3.487626 0.819285,11.058746 l 1.172042,7.159578 -0.75328,0.568201 c -1.910341,1.440973 -4.600287,1.60848 -7.784708,0.484765 z M 103.81222,21.792829 c -1.28286,-0.631979 -2.10929,-1.872578 -2.79498,-4.195691 -0.84813,-2.873485 0.3059,-4.537138 3.1473,-4.537138 1.94548,0 2.6926,0.699724 2.96507,2.776934 0.11132,0.848686 0.3377,1.873842 0.50306,2.278123 0.57516,1.406122 0.19589,3.32359 -0.78724,3.980043 -0.58569,0.391077 -1.88954,0.261144 -3.03321,-0.302271 z"
       id="path1" />
  </g>
</svg>
